<?xml version="1.0" standalone="no"?>
<!DOCTYPE svg PUBLIC "-//W3C//DTD SVG 20010904//EN"
 "http://www.w3.org/TR/2001/REC-SVG-20010904/DTD/svg10.dtd">
<svg version="1.0" xmlns="http://www.w3.org/2000/svg"
 width="1120.000000pt" height="1120.000000pt" viewBox="0 0 1120.000000 1120.000000"
 preserveAspectRatio="xMidYMid meet">
<metadata>
Created by potrace 1.14, written by Peter Selinger 2001-2017
</metadata>
<g transform="translate(0.000000,1120.000000) scale(0.100000,-0.100000)"
fill="#000000" stroke="none">
<path d="M0 5789 c0 -3604 3 -5408 10 -5404 5 3 10 -1 10 -9 0 -9 5 -16 10
-16 6 0 10 5 10 10 0 6 9 10 21 10 11 0 17 4 14 10 -3 5 1 10 9 10 9 0 16 4
16 10 0 5 7 7 16 3 8 -3 13 -11 10 -18 -2 -7 2 -21 10 -32 13 -17 14 -16 8 10
-4 17 -1 34 7 44 12 15 12 16 -5 10 -16 -6 -17 -5 -7 7 18 22 53 5 64 -30 6
-16 14 -32 20 -35 5 -4 6 -12 2 -19 -6 -9 -4 -11 4 -6 7 5 10 14 7 21 -3 8 2
19 9 25 15 12 11 30 -5 30 -5 0 -7 -6 -4 -14 3 -8 1 -16 -3 -19 -14 -9 -9 36
6 59 16 24 51 21 49 -5 -3 -34 4 -76 9 -61 4 8 12 21 20 29 8 7 12 20 9 28 -3
8 -1 11 4 8 6 -3 10 -2 10 2 0 5 10 14 21 22 19 11 21 11 16 -3 -4 -10 -1 -16
8 -16 18 0 20 -21 4 -37 -8 -8 -7 -13 2 -18 8 -6 10 -4 5 4 -5 8 -3 12 5 10
26 -3 64 3 51 8 -10 4 -10 8 -1 19 6 8 15 12 18 9 4 -2 8 2 8 9 0 8 -6 12 -14
9 -7 -3 -13 -1 -13 4 0 5 -9 9 -20 9 -23 0 -27 -14 -5 -22 8 -4 12 -10 9 -15
-3 -5 -15 0 -27 12 -18 17 -20 21 -7 29 16 10 42 14 74 10 14 -1 17 3 12 16
-7 17 29 52 48 46 5 -2 4 3 -1 10 -8 9 -8 18 1 30 11 15 13 15 25 -4 7 -11 8
-17 2 -13 -15 9 -13 -6 3 -28 12 -15 14 -16 20 -2 3 8 4 21 2 28 -1 6 -1 9 1
5 3 -5 13 -3 24 2 17 10 23 7 21 -11 -1 -4 9 -2 23 4 13 7 23 16 22 22 -2 10
4 9 47 -3 14 -4 17 -2 11 8 -6 10 -4 12 10 6 15 -5 16 -4 6 8 -10 12 -6 14 24
11 20 -2 33 0 29 6 -3 5 -10 7 -15 4 -5 -3 -6 1 -3 9 4 10 16 14 37 11 43 -6
51 13 21 52 -14 18 -23 37 -19 42 3 5 -1 11 -7 14 -7 2 -11 7 -8 10 3 3 19 -6
35 -21 42 -38 119 -77 111 -57 -7 18 35 39 45 23 4 -5 13 -3 21 6 9 8 18 12
22 9 3 -4 12 2 20 12 7 10 20 16 28 12 12 -4 14 0 11 13 -3 12 3 22 16 30 20
10 19 13 -29 71 -50 60 -135 182 -160 228 -13 26 -31 81 -25 81 2 0 23 -28 48
-62 25 -35 60 -76 78 -93 19 -16 28 -23 22 -15 -16 18 -17 44 -1 34 7 -5 8 -3
4 5 -5 7 -11 10 -14 7 -7 -8 -32 14 -32 28 0 7 4 6 9 -2 7 -11 9 -11 14 1 4
10 0 14 -11 12 -9 -1 -23 2 -29 8 -15 11 -17 31 -3 22 16 -10 11 1 -7 16 -11
10 -14 10 -9 2 4 -7 5 -13 3 -13 -6 0 -97 135 -97 144 0 4 11 -4 24 -16 13
-13 21 -26 19 -30 -2 -5 0 -8 5 -8 6 0 42 -33 81 -73 38 -40 79 -73 91 -74 18
-2 16 4 -17 45 -21 26 -40 49 -43 52 -3 3 -12 14 -20 25 -13 17 25 -15 104
-87 25 -23 43 -23 25 0 -11 14 -10 13 9 -2 23 -20 30 -32 11 -20 -7 4 -10 2
-8 -5 3 -7 8 -11 11 -9 4 2 24 -13 44 -32 l38 -35 -34 45 c-19 25 -61 77 -95
115 -86 100 -97 118 -34 57 30 -28 60 -52 67 -52 7 0 11 -4 8 -8 -3 -5 1 -9 9
-9 8 0 15 2 15 4 0 4 -105 149 -167 231 -18 24 -31 47 -28 52 5 9 143 -129
210 -210 21 -25 43 -44 49 -42 6 2 8 0 4 -3 -10 -10 81 -127 93 -119 5 3 7 9
4 14 -14 23 -156 224 -182 257 -16 21 -37 52 -48 68 -18 30 -18 30 2 12 11 -9
23 -14 28 -10 4 5 5 3 2 -3 -4 -7 7 -27 25 -45 17 -19 29 -26 25 -17 -10 29
-1 21 22 -18 12 -20 30 -38 41 -41 11 -3 20 -10 20 -15 0 -5 -6 -6 -12 -2 -9
5 -9 3 1 -9 7 -9 17 -14 22 -11 5 3 8 0 7 -8 -2 -7 3 -12 10 -10 6 1 11 -3 10
-10 -2 -7 3 -12 10 -13 7 0 17 -6 21 -14 5 -7 11 -9 14 -4 3 4 -6 33 -20 63
-36 79 -111 309 -121 374 -6 38 -5 57 2 60 7 3 6 5 -1 5 -7 1 -13 9 -12 19 0
10 3 12 6 5 11 -29 20 -10 13 25 -8 34 -7 35 6 18 13 -19 14 -18 15 10 1 17
10 -7 24 -61 35 -143 75 -252 91 -252 8 0 14 5 14 11 0 5 7 1 16 -10 15 -18
15 -17 1 7 -9 15 -23 55 -32 90 -9 35 -21 72 -27 82 -5 10 -7 21 -5 23 3 3 12
-16 22 -43 9 -26 25 -66 35 -88 10 -22 25 -56 33 -75 35 -88 36 -88 30 -15 -4
39 -6 98 -7 132 -1 33 -4 59 -8 56 -5 -2 -8 5 -8 17 0 13 5 20 13 18 6 -3 16
-32 20 -66 14 -103 27 -70 23 61 -2 76 0 115 5 102 9 -20 8 20 -6 160 l-6 60
19 -34 c14 -25 21 -30 27 -21 10 17 23 -11 24 -52 1 -15 6 -30 11 -33 7 -4 9
35 5 119 -4 91 -2 126 6 126 7 0 9 -9 5 -25 -4 -14 -2 -25 4 -25 5 0 11 19 12
43 0 23 2 47 3 52 1 6 5 47 10 93 4 45 11 84 15 87 4 2 6 16 5 30 -2 14 1 23
6 19 14 -8 11 -54 -3 -54 -10 0 -9 -3 1 -9 13 -8 11 -48 -5 -103 -3 -10 0 -18
6 -18 6 0 9 3 7 8 -3 4 1 21 8 37 l14 30 -5 -40 c-2 -22 -8 -75 -14 -118 -12
-96 -12 -110 -1 -103 5 3 15 30 21 58 7 29 19 65 27 80 7 16 12 28 9 28 -2 0
6 21 20 46 13 25 18 42 12 38 -7 -4 -3 4 10 18 12 13 22 29 22 34 0 6 9 20 20
32 12 12 18 22 14 22 -4 0 1 9 12 21 10 11 19 28 19 37 0 10 5 16 12 15 8 -2
10 4 6 14 -4 11 -3 14 5 9 11 -6 16 5 14 26 -2 10 28 32 47 34 13 2 12 0 -4
-12 -11 -8 -19 -18 -17 -22 1 -4 -5 -15 -13 -25 -8 -9 -15 -21 -15 -25 0 -11
-44 -96 -54 -103 -5 -4 -6 -14 -3 -24 4 -9 3 -14 -2 -11 -5 3 -14 0 -20 -8 -9
-11 -8 -18 4 -30 19 -18 29 -21 20 -6 -12 20 15 39 48 34 27 -3 36 1 50 24 9
15 17 22 17 15 0 -6 -17 -31 -38 -55 -91 -105 -139 -186 -187 -314 -30 -79
-28 -94 4 -25 12 27 28 52 36 55 8 3 15 10 15 16 0 6 -6 8 -12 4 -7 -4 -3 4
10 17 13 13 49 60 81 104 33 44 72 91 87 105 l28 25 -27 -37 c-40 -54 -23 -47
34 13 27 29 49 47 49 40 0 -7 5 -9 10 -6 6 4 8 10 5 14 -7 12 32 44 45 36 15
-9 2 -26 -18 -23 -11 2 -16 -3 -14 -14 2 -10 -2 -19 -8 -19 -5 -1 -14 -2 -20
-3 -5 0 -10 -5 -11 -11 0 -5 -9 -14 -19 -20 -10 -5 -18 -13 -17 -16 1 -3 -15
-20 -36 -39 -21 -18 -36 -39 -33 -46 3 -8 1 -13 -3 -11 -9 2 -166 -203 -163
-213 5 -14 -11 -39 -20 -34 -7 4 -8 2 -4 -5 4 -6 -2 -25 -14 -41 -14 -19 -17
-30 -9 -28 8 2 33 35 58 73 38 62 95 141 111 155 3 3 21 24 39 48 19 25 39 41
47 38 8 -3 11 0 8 8 -3 7 8 21 23 31 15 10 39 29 53 42 14 14 39 31 55 39 l30
15 -30 -25 c-16 -14 -26 -26 -21 -26 5 0 3 -7 -4 -15 -18 -21 -35 -19 -19 3
13 15 12 16 -4 3 -9 -8 -15 -16 -12 -19 2 -3 -21 -35 -53 -71 -77 -88 -115
-141 -108 -148 3 -4 21 11 40 33 50 58 69 77 96 99 14 11 8 1 -12 -21 -21 -22
-38 -44 -38 -49 0 -5 -10 -19 -23 -33 -22 -24 -32 -75 -12 -66 5 3 3 0 -6 -8
-9 -7 -16 -17 -17 -21 -2 -16 -40 -56 -47 -49 -3 4 -5 2 -4 -3 2 -6 -27 -71
-63 -145 -72 -145 -100 -214 -99 -244 0 -24 23 -39 33 -23 4 7 8 8 8 2 0 -5
-5 -17 -10 -25 -8 -12 -10 -12 -10 -1 0 8 -3 11 -6 8 -4 -4 -1 -14 6 -22 12
-15 15 -14 27 7 11 18 13 18 8 3 -4 -11 -8 -31 -10 -45 -2 -23 -1 -23 9 -6 25
43 125 166 186 229 36 38 80 92 98 120 17 28 32 48 32 43 0 -17 -52 -116 -61
-116 -6 0 -7 -4 -4 -10 3 -5 -1 -23 -10 -41 -9 -17 -14 -33 -12 -36 6 -6 57
79 57 95 0 7 5 12 10 12 6 0 15 11 20 25 5 14 15 25 21 25 8 0 8 -4 1 -12 -5
-7 -6 -22 -2 -33 4 -11 5 -26 3 -32 -11 -28 9 -11 23 19 8 18 18 40 24 48 5 8
16 36 26 63 9 26 18 46 20 45 1 -2 -6 -44 -17 -93 -11 -50 -20 -106 -20 -125
-1 -60 4 -116 8 -97 3 9 9 17 14 17 5 0 9 9 9 20 0 11 4 20 10 20 5 0 7 8 4
18 -5 14 -3 14 11 -3 15 -19 17 -19 29 -2 16 21 46 23 46 3 0 -8 9 -18 21 -21
15 -5 17 -10 9 -20 -8 -10 -8 -15 1 -21 7 -4 9 -3 6 3 -9 15 19 36 35 27 10
-6 9 -3 -1 9 -12 15 -10 17 15 17 21 0 25 3 17 11 -16 16 -6 36 33 60 21 12
41 18 54 14 12 -4 20 -2 20 6 0 9 3 9 14 0 12 -10 14 -9 9 7 -5 20 20 37 38
26 5 -3 9 2 9 11 0 12 5 15 17 11 10 -4 14 -4 10 0 -8 9 11 34 27 34 6 0 4 -4
-4 -10 -22 -14 -6 -22 23 -11 18 7 27 7 30 -2 3 -8 11 -6 23 7 11 11 12 15 4
9 -13 -10 -16 -8 -16 6 0 21 23 21 37 0 6 -10 9 -11 9 -1 0 7 8 12 18 10 12
-2 16 3 15 18 -2 18 2 21 19 16 13 -3 24 1 30 12 5 9 18 16 29 16 19 0 19 1 5
16 -20 19 -21 31 -2 15 10 -9 16 -9 21 -1 4 6 13 9 21 6 8 -3 14 -1 14 4 0 14
27 12 33 -2 4 -10 6 -10 6 -1 1 6 -4 15 -9 18 -6 3 -10 11 -10 16 0 6 8 3 17
-7 17 -16 18 -16 24 7 6 21 14 9 10 -14 -1 -5 6 -7 16 -5 10 2 16 11 15 19 -2
8 -1 11 3 7 4 -3 22 0 40 8 22 9 36 10 40 4 4 -6 30 -9 59 -8 45 3 52 6 48 21
-2 9 1 17 7 17 8 0 7 8 -3 28 -12 23 -12 29 0 40 11 10 14 10 14 -1 0 -7 6
-14 14 -14 12 0 12 5 0 33 -20 48 -18 51 16 19 16 -16 33 -26 36 -22 4 4 13 2
21 -5 11 -8 12 -7 7 6 -5 12 -2 15 10 10 14 -5 14 -3 2 27 -13 31 -36 132 -50
218 -5 29 -4 32 9 21 8 -7 12 -17 8 -23 -3 -5 -1 -7 4 -4 6 4 9 19 7 34 -2 16
-1 22 2 16 3 -7 6 -16 6 -20 2 -14 116 -201 136 -221 8 -10 12 -10 12 -1 0 9
3 9 15 -1 12 -10 13 -7 5 19 -5 19 -5 31 1 31 5 0 9 -5 9 -12 0 -6 2 -9 5 -7
4 5 -20 158 -31 192 -3 10 -7 50 -8 88 -4 79 13 91 27 20 5 -24 10 -41 12 -39
2 2 5 52 6 111 2 60 6 110 9 112 4 2 7 -1 7 -8 4 -77 14 -168 23 -192 7 -23 9
-10 6 60 -2 50 -2 77 1 61 2 -15 14 -42 25 -60 11 -17 18 -23 15 -14 -3 9 -1
19 6 22 9 3 8 7 -3 15 -13 9 -13 12 -1 23 9 8 11 9 7 1 -3 -6 -2 -14 4 -18 5
-3 21 -44 35 -90 15 -47 30 -85 35 -85 5 0 7 -7 4 -15 -4 -8 -2 -15 4 -15 6 0
13 6 15 13 3 7 6 6 6 -5 1 -9 5 -20 11 -23 5 -3 7 0 4 8 -3 8 0 18 6 22 9 6 9
10 -1 16 -11 7 -11 9 1 9 12 0 19 21 29 88 17 122 71 342 82 342 6 0 8 4 5 9
-10 15 15 70 29 65 14 -6 14 -9 -4 -72 -12 -43 -26 -172 -18 -172 2 0 17 33
33 74 15 41 32 72 36 70 4 -3 5 1 3 9 -7 16 32 107 45 107 5 0 7 7 4 15 -4 8
-1 15 5 15 6 0 8 8 4 18 -3 9 -3 14 2 10 10 -9 35 10 35 26 0 6 -5 4 -10 -4
-20 -31 -9 0 15 41 16 29 25 37 25 25 0 -18 1 -18 19 -2 19 17 19 17 14 -3 -3
-11 -9 -19 -13 -16 -4 3 -11 -2 -14 -11 -9 -22 -8 -26 6 -18 7 4 8 3 4 -5 -12
-18 -27 -2 -21 22 5 19 5 20 -5 4 -6 -9 -8 -22 -5 -27 4 -6 -3 -26 -15 -45
-17 -28 -18 -34 -6 -29 24 9 19 -9 -6 -25 -19 -12 -20 -14 -5 -23 23 -12 22
-32 -2 -25 -14 3 -17 0 -14 -14 3 -11 0 -26 -7 -34 -7 -9 -11 -17 -9 -20 8 -8
24 10 44 50 24 48 195 217 212 211 7 -3 12 0 10 6 -1 6 27 31 63 55 87 60 100
66 100 52 0 -6 -9 -13 -20 -16 -11 -3 -20 -10 -20 -15 0 -5 -4 -6 -10 -3 -5 3
-10 3 -10 -2 0 -4 -14 -16 -31 -25 -17 -10 -27 -22 -24 -28 6 -10 -9 -15 -30
-10 -5 1 -7 -2 -2 -6 4 -4 0 -16 -10 -26 -18 -20 -38 -25 -27 -5 4 7 3 9 -2 4
-5 -5 -9 -14 -9 -20 -1 -7 -6 -11 -13 -10 -6 2 -9 -4 -6 -12 5 -11 16 -7 49
21 26 21 43 29 41 20 -1 -8 -29 -35 -61 -59 -33 -24 -79 -66 -101 -93 -43 -51
-134 -187 -134 -199 0 -4 -11 -30 -25 -59 -21 -43 -22 -47 -5 -26 43 53 63 83
49 75 -32 -19 142 143 182 169 24 16 55 37 69 46 31 21 107 60 116 60 4 0 -14
-14 -39 -31 -61 -40 -74 -60 -16 -25 58 36 110 59 117 51 3 -3 -4 -8 -16 -12
-12 -3 -20 -9 -17 -13 2 -4 -21 -24 -53 -45 -70 -47 -186 -140 -270 -219 -46
-44 -61 -64 -57 -77 4 -12 1 -19 -7 -20 -7 0 -2 -5 11 -10 13 -5 26 -7 29 -4
3 3 0 5 -6 5 -7 0 -12 10 -12 23 1 20 2 20 11 4 10 -17 13 -17 34 -3 16 11 26
12 30 5 4 -6 19 3 37 23 17 18 28 26 25 16 -11 -32 32 -29 82 6 25 18 66 45
91 61 l45 28 -35 -41 c-19 -22 -41 -41 -49 -41 -8 -1 -12 -4 -8 -7 3 -4 -12
-22 -34 -40 -48 -40 -43 -46 7 -8 19 15 34 23 34 19 0 -5 9 0 20 10 11 10 20
15 20 12 0 -4 -24 -24 -53 -46 -30 -21 -54 -46 -54 -55 0 -21 0 -21 49 14 22
17 45 30 50 30 6 0 18 10 28 23 10 12 21 19 25 16 3 -4 -6 -19 -22 -33 -19
-18 -24 -29 -17 -34 9 -5 8 -11 -2 -20 -12 -11 -14 -10 -14 3 0 12 -3 13 -12
5 -7 -5 -24 -19 -38 -29 -21 -17 -22 -19 -6 -17 11 2 22 8 24 14 2 8 10 8 28
0 14 -7 23 -17 20 -25 -8 -19 11 -16 23 5 6 9 11 12 11 6 0 -7 7 -14 14 -17
11 -4 13 -1 9 11 -5 13 -1 12 21 -6 29 -22 62 -30 51 -12 -3 5 12 14 34 20 22
6 42 16 44 23 4 9 6 9 6 0 1 -7 5 -13 10 -13 6 0 8 9 6 20 -2 12 0 18 6 14 6
-3 13 3 16 15 3 11 9 19 13 16 5 -3 11 -1 15 5 3 5 12 10 18 10 7 0 6 -4 -3
-10 -13 -8 -12 -10 3 -10 11 0 17 8 17 23 0 23 17 47 33 47 4 0 6 -4 2 -9 -10
-17 12 -21 25 -6 9 10 9 15 1 15 -6 0 -11 5 -11 11 0 6 6 9 13 6 9 -3 39 33
86 101 39 59 90 127 112 152 47 52 45 47 -34 -72 -31 -48 -57 -91 -57 -95 0
-3 15 11 34 33 21 23 34 32 32 22 -1 -9 -10 -26 -21 -38 -12 -13 -14 -20 -5
-20 8 0 10 -6 5 -17 -4 -10 -7 -26 -7 -35 0 -10 -4 -18 -9 -18 -6 0 -7 -4 -4
-10 4 -6 15 -2 27 10 29 27 36 25 30 -6 -3 -18 -1 -25 6 -20 6 4 9 12 7 19 -3
7 4 23 15 37 11 14 20 19 20 13 0 -16 20 -17 20 -2 0 24 136 182 272 314 151
149 208 198 146 127 -65 -73 -49 -67 40 15 20 18 39 30 44 27 4 -3 8 0 8 5 0
6 5 11 11 11 8 0 8 -4 -1 -15 -6 -8 -8 -20 -4 -26 5 -8 3 -9 -5 -4 -14 8 -64
-33 -56 -46 3 -4 -27 -40 -65 -81 -66 -68 -160 -187 -186 -234 -10 -17 -9 -20
7 -21 11 -1 26 9 35 22 10 15 21 22 31 18 12 -5 15 -2 10 10 -3 9 -1 19 5 23
7 4 8 3 4 -4 -13 -22 9 -12 44 19 112 97 287 232 347 267 185 108 341 169 285
113 -23 -24 -120 -63 -134 -55 -6 4 -8 3 -5 -3 7 -12 -14 -23 -43 -23 -10 0
-22 -5 -26 -12 -5 -7 -3 -8 7 -3 12 8 12 6 0 -8 -9 -11 -10 -17 -2 -17 14 0
54 22 63 35 4 6 8 7 8 3 0 -5 22 1 50 11 27 11 47 14 44 9 -4 -6 -1 -8 7 -6 8
3 13 10 12 16 -2 7 10 10 27 9 28 -2 27 -15 -1 -21 -8 -2 -27 -8 -43 -15 -29
-12 -59 -19 -86 -20 -13 -1 -13 -3 -1 -10 8 -5 25 -5 42 1 15 5 36 8 46 5 13
-3 11 -5 -7 -7 -14 -1 -43 -10 -65 -20 -35 -16 -37 -19 -15 -19 15 -1 31 4 37
10 6 6 17 8 23 4 8 -5 -2 -14 -26 -25 -35 -16 -36 -18 -14 -19 19 -1 22 -3 10
-10 -8 -6 -18 -7 -22 -5 -5 3 -25 7 -45 9 -21 2 -31 0 -24 -5 10 -6 9 -10 -5
-19 -17 -11 -16 -11 5 -5 14 4 21 2 17 -4 -3 -5 -16 -12 -29 -16 -33 -8 -257
-114 -257 -121 0 -7 34 -2 110 14 68 15 75 14 59 -6 -11 -15 -11 -16 1 -6 10
9 18 9 34 1 12 -6 23 -11 26 -11 3 1 4 -3 3 -8 -2 -4 3 -6 11 -3 8 3 17 1 20
-5 4 -6 13 -8 21 -4 10 3 15 -1 15 -12 0 -10 -5 -14 -12 -9 -7 4 -9 3 -5 -1
15 -17 59 -16 80 2 11 10 17 12 13 5 -4 -6 -2 -12 3 -12 6 0 11 6 11 13 1 7 6
5 14 -5 10 -13 15 -15 24 -6 12 12 14 6 11 -18 0 -4 5 -11 13 -15 11 -7 11 -9
0 -9 -7 0 -20 7 -29 15 -17 17 -35 11 -27 -9 8 -20 46 -27 64 -12 23 20 53 28
47 14 -2 -7 -8 -12 -13 -11 -5 1 -10 -10 -11 -24 -1 -19 1 -22 8 -12 8 13 13
5 10 -14 -1 -5 3 -6 9 -2 6 4 7 13 1 23 -6 11 -4 21 4 29 11 10 15 9 20 -7 4
-11 10 -18 15 -15 5 3 6 13 3 22 -5 14 -4 14 19 -1 22 -15 27 -15 38 -1 7 8
16 13 20 10 4 -2 12 7 19 21 l11 26 20 -24 c14 -17 19 -19 20 -7 0 8 -5 20
-11 26 -9 9 -6 10 10 6 17 -4 20 -2 15 11 -7 17 11 22 21 6 3 -5 13 -10 21
-10 14 0 13 2 0 16 -9 8 -16 17 -16 18 0 3 42 -1 50 -5 14 -6 36 -4 43 6 4 6
7 1 5 -10 -3 -19 3 -20 95 -21 53 0 97 3 97 8 0 4 5 8 12 8 7 0 24 12 39 26
14 14 35 27 45 28 11 2 18 10 16 20 -2 10 4 16 15 16 10 0 29 3 43 5 14 3 19
3 12 -1 -19 -9 -14 -24 9 -24 16 0 20 5 17 18 -3 11 0 19 7 19 7 0 10 -8 7
-19 -3 -13 1 -18 14 -18 16 0 16 2 4 10 -13 8 -13 9 0 14 8 2 22 4 30 4 8 0
28 3 44 7 19 5 27 4 23 -2 -4 -7 8 -10 32 -9 29 0 37 4 33 15 -4 10 -1 13 11
8 9 -3 16 -3 16 1 -3 19 2 25 10 13 13 -20 42 4 34 27 -6 14 -4 15 8 5 18 -15
41 1 32 23 -3 8 -1 14 5 14 5 0 12 10 16 23 3 12 52 70 110 129 132 135 171
207 171 313 0 49 -6 82 -20 110 -29 60 -29 63 2 28 15 -17 39 -34 53 -36 24
-4 24 -5 3 -12 -26 -9 -27 -46 0 -53 15 -4 17 -11 12 -46 -4 -22 -7 -67 -8
-98 -2 -31 -6 -60 -10 -64 -4 -4 -2 -13 4 -21 9 -10 7 -19 -5 -38 -9 -14 -21
-25 -26 -25 -5 0 -7 -7 -3 -16 9 -23 -100 -124 -177 -165 -53 -28 -65 -39 -66
-59 0 -14 -3 -31 -8 -38 -5 -8 2 -12 26 -13 l33 -1 -27 -10 c-16 -5 -28 -13
-28 -18 0 -32 127 -3 245 55 59 29 122 72 184 125 52 44 99 80 104 80 7 0 69
45 187 138 19 15 29 19 21 9 -9 -12 -10 -17 -2 -17 7 0 9 -5 5 -11 -4 -8 -9
-7 -15 2 -4 7 -11 10 -15 6 -11 -11 0 -18 37 -22 21 -3 29 -1 21 4 -10 6 -7
10 12 13 16 3 27 0 31 -10 3 -8 12 -12 20 -9 9 4 12 1 8 -9 -3 -8 1 -14 10
-14 8 0 18 -7 21 -16 4 -9 11 -12 18 -7 7 4 20 8 28 8 24 0 40 14 33 30 -3 8
-1 15 4 15 5 0 10 -11 11 -24 2 -24 -21 -42 -39 -30 -5 3 -9 0 -9 -7 0 -7 8
-9 23 -4 12 4 30 7 40 6 14 0 16 3 7 14 -7 9 -8 15 0 20 5 3 10 16 11 28 1 22
1 22 7 -1 6 -21 9 -22 27 -8 15 11 23 12 35 3 13 -10 13 -10 1 6 -8 10 -9 17
-3 17 6 0 9 8 6 18 -3 9 1 6 9 -7 13 -22 15 -23 24 -6 10 16 13 17 41 2 30
-14 32 -14 58 10 21 19 29 22 36 11 6 -9 7 -5 3 11 -6 20 -4 23 10 17 14 -5
16 -2 11 16 -4 13 -22 91 -41 173 -26 117 -44 169 -78 235 -63 120 -89 218
-102 377 -6 86 -156 546 -215 663 -16 30 -53 81 -84 114 -31 32 -56 63 -56 68
0 11 111 -82 152 -127 29 -31 68 -122 109 -255 13 -41 26 -77 30 -80 3 -3 16
-42 29 -87 12 -46 28 -83 34 -83 7 0 6 -3 -2 -8 -9 -6 -6 -25 13 -82 14 -40
25 -82 25 -93 0 -18 5 -19 48 -14 26 4 76 9 110 13 67 7 88 25 59 47 -9 7 -20
38 -25 71 l-9 58 29 13 c25 10 27 13 13 19 -10 3 -41 4 -69 1 -48 -4 -49 -4
-15 6 l35 10 -3 62 c-2 34 -5 71 -7 82 -2 14 5 23 23 31 22 9 15 10 -39 7
l-65 -3 40 13 c42 13 42 13 32 107 -1 14 1 33 6 42 5 11 4 18 -3 18 -5 0 -10
7 -10 16 0 11 -5 14 -16 10 -11 -4 -15 -2 -11 7 4 10 -3 12 -24 9 -50 -7 -32
6 31 24 60 17 74 36 32 42 -16 2 -19 9 -16 28 2 13 0 24 -5 24 -4 0 -8 11 -8
25 -1 43 9 43 -216 10 -53 -8 -9 7 118 40 l120 32 -3 34 c-2 19 -11 55 -19 81
-13 41 -19 48 -42 49 -25 1 -24 2 6 11 30 10 31 12 15 24 -11 9 -13 13 -4 14
13 0 42 24 42 34 0 3 -15 6 -32 6 l-33 0 25 20 c21 17 23 21 10 30 -12 8 -13
11 -1 19 10 6 10 10 1 16 -8 5 -6 11 6 19 16 12 16 13 -2 20 -18 8 -18 8 1 16
18 8 18 9 -5 9 -24 1 -26 4 -22 36 2 19 8 38 13 41 5 3 9 14 9 26 0 15 -4 18
-16 14 -14 -5 -15 -4 -5 8 6 7 24 16 39 19 58 12 85 27 73 41 -6 7 -8 16 -5
19 4 3 4 18 0 32 -6 22 -12 25 -54 26 -32 0 -41 3 -28 8 18 7 18 8 2 14 -17 7
-16 10 6 40 33 44 39 63 28 91 -8 22 -6 25 21 31 17 4 26 11 23 17 -5 8 6 9
34 5 23 -3 40 -1 37 3 -3 5 1 11 7 13 7 3 -27 4 -77 1 -74 -3 -84 -2 -56 7 49
15 81 39 81 59 0 10 17 29 38 42 l37 23 -85 3 -85 3 80 27 c65 22 79 31 77 45
-2 12 4 20 17 24 11 3 17 11 14 19 -3 7 2 21 11 29 9 9 16 22 16 29 0 15 68
38 75 26 3 -4 18 -12 33 -18 l28 -10 -48 112 c-52 122 -68 200 -56 288 9 73
57 167 105 208 36 30 36 31 7 16 -41 -20 -89 -76 -104 -121 -7 -20 -14 -34
-16 -32 -3 3 4 27 14 55 11 28 17 54 13 58 -3 4 -1 4 5 1 17 -10 40 21 27 34
-12 12 -48 -31 -83 -100 -15 -31 -24 -40 -30 -31 -4 7 -15 10 -25 7 -9 -4 -13
-3 -10 2 9 16 -15 23 -32 9 -14 -11 -15 -10 -9 12 16 57 80 173 115 210 21 22
34 40 30 40 -12 0 -86 -87 -130 -153 -39 -59 -64 -127 -79 -215 l-8 -47 -2 40
-2 40 -10 -47 c-6 -27 -14 -48 -19 -48 -5 0 -9 -9 -9 -21 0 -11 -4 -17 -10
-14 -5 3 -10 0 -10 -7 -1 -7 -10 3 -20 24 -29 54 -65 78 -118 78 -38 0 -50 -5
-83 -39 -24 -23 -39 -48 -39 -62 0 -19 2 -21 10 -9 7 11 10 -2 10 -44 0 -56 2
-62 37 -94 l38 -34 -28 -24 c-16 -13 -37 -24 -48 -24 -11 0 -17 -4 -14 -10 3
-5 1 -10 -4 -10 -6 0 -11 3 -11 8 0 4 -10 18 -21 32 l-21 25 19 -33 c32 -58
88 -127 106 -130 10 -2 33 8 52 22 18 14 37 26 41 26 4 0 -10 -13 -32 -30 -21
-16 -46 -30 -55 -30 -17 0 -73 56 -104 104 -10 14 -21 24 -25 21 -5 -3 -15 3
-22 14 -20 28 -207 50 -241 28 -39 -26 -98 -88 -92 -98 10 -16 22 -10 77 37
l53 46 84 -6 c46 -4 90 -10 98 -15 8 -4 35 -37 59 -72 l45 -64 -22 -17 c-17
-15 -41 -18 -131 -18 -93 0 -107 -2 -96 -14 7 -8 15 -12 17 -10 2 2 12 -1 23
-7 10 -6 74 -18 141 -28 l122 -18 -63 -6 c-34 -4 -82 -16 -105 -26 -32 -15
-69 -20 -139 -22 -72 -2 -95 -6 -94 -15 3 -19 16 -30 16 -14 0 7 3 11 6 8 3
-4 1 -15 -5 -27 -10 -18 -7 -21 31 -32 24 -6 84 -19 133 -29 l90 -18 -61 -1
c-60 -1 -61 -2 -110 -53 -27 -29 -48 -56 -46 -60 1 -4 -6 -8 -15 -9 -12 0 -8
-5 12 -15 29 -14 29 -14 -19 -8 -36 5 -50 3 -57 -7 -12 -19 -11 -69 1 -69 5 0
7 -6 4 -14 -6 -16 78 -46 164 -61 25 -4 40 -11 36 -17 -7 -11 -130 -6 -169 7
-11 3 -4 -3 15 -14 l35 -20 -38 -1 -38 0 20 -29 c22 -31 68 -53 171 -82 l65
-19 -68 6 c-37 3 -82 10 -98 14 -25 7 -35 5 -52 -10 -11 -11 -28 -22 -38 -25
-20 -7 -30 -27 -21 -42 7 -11 123 -64 207 -94 l50 -18 -55 6 c-30 3 -84 14
-119 24 -35 10 -68 16 -72 13 -5 -3 -9 1 -9 8 0 11 -2 10 -9 0 -10 -17 -19 23
-28 126 -7 84 -22 96 -24 20 -2 -71 -2 -70 30 -141 43 -96 45 -106 11 -67 -17
19 -42 52 -56 72 -29 41 -54 56 -54 31 0 -9 18 -52 41 -96 22 -43 39 -80 37
-82 -2 -2 -20 5 -40 15 -21 10 -49 17 -63 16 -23 -1 -26 -5 -23 -28 4 -26 2
-25 -54 24 -32 27 -58 48 -58 45 0 -2 30 -40 66 -83 36 -43 75 -92 87 -109 20
-28 19 -28 -23 7 -24 21 -54 38 -67 38 -14 0 -34 5 -45 11 -16 8 -31 8 -61 -1
-34 -10 -38 -15 -34 -36 5 -30 2 -30 -42 2 -20 15 0 -10 44 -55 90 -92 93
-108 4 -27 l-60 54 -23 -22 c-12 -11 -37 -32 -55 -46 -50 -38 -62 -51 -56 -61
9 -14 -8 -11 -35 7 -14 10 0 -9 30 -41 l55 -58 -59 49 c-33 27 -57 44 -53 38
3 -6 -7 -18 -22 -27 -15 -9 -36 -32 -46 -52 -13 -24 -25 -33 -35 -30 -8 4 -3
-7 13 -22 32 -34 33 -41 8 -39 -10 0 -42 -8 -69 -18 l-51 -20 36 -50 37 -51
-49 48 c-53 52 -127 91 -190 102 l-40 7 30 -27 c17 -14 23 -23 15 -19 -21 11
-60 14 -60 4 0 -16 33 -41 100 -75 64 -32 135 -83 127 -91 -2 -2 -17 3 -34 11
-59 29 -89 30 -117 2 -32 -32 -32 -45 -1 -142 30 -92 58 -135 88 -136 21 0 21
-1 -2 -10 -13 -5 -32 -7 -41 -4 -38 12 -132 189 -156 292 -14 62 -14 73 1 138
10 38 31 90 48 115 66 99 272 327 338 376 26 19 85 66 131 105 46 39 149 115
229 170 81 55 156 110 166 122 20 22 56 108 67 160 4 15 11 25 17 22 5 -4 3
10 -5 30 -10 23 -13 48 -9 64 l7 26 8 -25 c4 -14 6 73 3 194 -5 204 -6 223
-31 290 -42 114 -44 230 -5 376 33 126 34 156 2 58 -52 -159 -92 -346 -93
-435 0 -13 -3 -23 -7 -23 -3 0 -7 -17 -9 -37 -1 -23 -10 -41 -23 -51 -11 -7
-19 -21 -17 -30 2 -9 -7 -27 -19 -40 -17 -18 -20 -29 -13 -42 8 -15 6 -17 -12
-12 -22 5 -22 5 -5 -22 18 -27 18 -27 -2 -17 -17 10 -19 8 -16 -9 2 -11 -1
-20 -7 -20 -6 0 -1 -12 13 -26 l24 -27 -24 13 c-19 10 -25 10 -32 -1 -5 -8 -9
-10 -9 -5 0 5 -9 1 -20 -9 -13 -12 -17 -22 -11 -33 7 -11 2 -21 -17 -36 -15
-12 -30 -20 -35 -18 -5 1 -6 -2 -2 -7 9 -16 -65 -80 -84 -74 -9 4 -13 2 -9 -2
5 -5 -2 -13 -15 -20 -12 -6 -21 -17 -19 -24 1 -7 -6 -21 -18 -31 -18 -15 -18
-19 -5 -30 30 -25 6 -21 -37 6 -23 15 -45 28 -46 30 -2 1 14 26 35 56 21 29
67 103 102 165 35 61 87 143 116 181 75 97 111 165 135 253 29 109 50 236 44
268 -11 54 113 259 167 276 9 3 19 15 22 27 6 20 10 20 64 12 68 -9 240 -11
300 -3 55 8 79 -6 32 -19 l-34 -10 40 -2 c39 -2 39 -2 12 -12 -15 -5 -25 -14
-22 -18 3 -5 13 -6 23 -3 12 4 14 3 7 -5 -5 -5 -19 -12 -30 -15 -11 -3 3 -6
30 -7 l50 -2 -40 -13 -40 -13 32 -1 c17 -1 39 -4 48 -8 14 -5 12 -8 -11 -20
l-29 -13 35 4 35 5 -40 -19 -40 -20 48 6 c26 4 47 4 47 1 0 -2 -32 -15 -71
-27 -60 -20 -84 -22 -172 -18 -68 4 -92 2 -72 -3 41 -13 219 -12 282 0 126 25
257 93 358 186 34 32 40 40 18 25 -37 -24 -39 -23 -19 25 17 39 15 42 -9 19
-20 -21 -32 -10 -14 13 12 15 12 16 -4 10 -21 -8 -16 5 16 41 11 12 16 22 10
22 -5 0 -18 -9 -28 -20 -10 -11 -23 -20 -29 -20 -6 0 -2 6 9 14 22 15 90 106
80 106 -4 0 -20 -9 -36 -21 -16 -11 -29 -18 -29 -15 0 3 -22 -8 -49 -24 -26
-17 -51 -30 -55 -30 -15 0 2 27 29 44 17 11 53 35 81 53 28 18 54 33 57 33 3
0 26 -35 52 -77 45 -77 48 -79 140 -127 52 -27 95 -53 95 -57 0 -4 -10 -10
-22 -12 -13 -2 -5 -5 18 -6 28 -1 54 -10 81 -30 l39 -28 -3 206 c-3 113 -7
208 -9 211 -3 3 -10 6 -15 6 -5 1 -13 2 -19 3 -5 0 -10 7 -10 15 0 31 -56 79
-144 121 -50 25 -78 42 -62 39 30 -7 146 -12 146 -6 0 2 -24 14 -52 27 -35 16
-45 25 -31 25 12 0 48 7 80 15 66 17 156 20 184 5 18 -10 19 -6 19 136 0 81 2
145 5 142 3 -3 10 -59 16 -124 5 -65 12 -126 15 -134 3 -8 24 -29 47 -45 108
-78 116 -239 19 -344 l-32 -33 0 -203 c0 -164 3 -211 17 -246 10 -28 17 -81
19 -144 3 -124 24 -224 77 -368 l42 -112 -1 -172 c0 -95 -3 -175 -6 -178 -3
-3 -33 1 -66 9 -33 9 -79 16 -103 16 -24 0 -39 4 -33 8 11 8 12 61 1 79 -4 6
-1 14 5 17 9 4 10 8 2 11 -8 4 -9 17 -3 43 12 53 11 60 -11 67 -27 9 -25 22 5
29 27 7 34 26 10 26 -16 0 -21 25 -6 34 21 13 3 41 -30 47 -27 4 -31 7 -16 14
10 4 16 14 13 21 -3 8 -1 14 3 14 5 0 11 6 14 14 5 13 0 13 -35 0 l-41 -14 19
22 c10 13 26 29 34 36 13 11 11 12 -10 6 -23 -6 -23 -6 5 20 l30 26 -40 -5
-39 -4 29 24 30 24 -62 1 c-35 0 -63 2 -63 5 0 3 5 14 12 25 10 15 9 22 -5 38
-9 10 -17 22 -17 26 0 4 -10 22 -22 39 -13 17 -23 36 -23 42 0 19 -73 161 -89
174 -9 7 -14 17 -11 21 2 4 -7 13 -21 20 -13 8 -27 25 -31 39 -6 25 -7 25 -19
-9 -16 -44 -17 -137 -3 -198 11 -46 84 -203 173 -371 25 -46 47 -95 51 -108 3
-13 10 -21 15 -18 6 3 10 1 10 -4 0 -6 -4 -11 -10 -11 -18 0 -11 -30 8 -31 10
0 12 -3 4 -6 -18 -7 -15 -78 10 -216 12 -67 21 -132 21 -144 -1 -13 2 -23 7
-23 11 0 22 -141 11 -154 -16 -19 -7 -81 12 -84 9 -2 17 -10 17 -18 0 -8 7
-29 16 -46 15 -29 23 -123 11 -134 -3 -3 -12 -6 -20 -8 -8 -1 -22 -8 -31 -15
-11 -9 -16 -10 -16 -2 0 6 -10 11 -22 11 -13 0 -34 12 -47 26 -24 25 -26 25
-39 7 -7 -10 -16 -17 -20 -16 -4 1 -8 -26 -9 -59 -3 -53 -1 -59 12 -48 13 11
15 7 15 -24 0 -33 -2 -36 -29 -36 -17 0 -33 5 -37 12 -5 7 -3 8 6 3 8 -5 11
-3 8 6 -3 8 -10 13 -16 12 -8 -2 -8 6 -1 26 17 48 6 190 -36 478 -40 274 -63
353 -52 181 5 -68 4 -84 -4 -61 -11 37 -26 50 -42 34 -18 -18 -25 -13 -19 14
5 26 -3 31 -26 16 -12 -7 -11 -25 2 -107 33 -214 46 -404 52 -758 3 -199 9
-406 14 -462 10 -111 63 -329 134 -554 26 -80 52 -173 58 -207 7 -39 16 -63
24 -63 8 0 11 6 8 14 -3 8 0 17 7 22 7 4 10 3 5 -4 -3 -6 -3 -13 2 -16 13 -8
112 24 112 37 0 8 3 8 9 -1 7 -11 11 -11 24 2 14 15 16 11 26 -36 14 -77 63
-439 59 -443 -2 -1 -59 -10 -127 -19 -68 -9 -126 -18 -129 -21 -9 -9 18 -222
33 -265 19 -54 45 -193 45 -239 -1 -38 -21 -61 -67 -75 -13 -4 -23 -11 -23
-15 0 -4 -10 -7 -22 -8 -13 -1 -30 -10 -38 -20 -23 -28 -80 -73 -92 -73 -6 0
0 9 13 19 37 29 149 141 142 141 -3 0 -21 -11 -40 -26 -18 -14 -33 -21 -33
-15 0 5 5 13 10 16 6 4 8 10 5 14 -2 5 4 16 15 26 11 10 20 23 20 28 0 6 -7 2
-15 -9 -14 -18 -15 -16 -12 27 2 25 8 52 12 59 5 9 4 11 -3 6 -13 -8 -12 28 1
40 13 14 7 75 -12 115 l-19 39 24 6 c29 7 31 20 4 29 -11 3 -22 16 -25 28 -2
12 -11 51 -19 87 -8 36 -20 106 -26 155 -23 189 -44 312 -60 362 l-17 52 29
12 c41 17 28 22 -30 11 -51 -9 -51 -9 -57 19 -4 16 -3 34 1 41 8 13 7 71 -2
100 -5 16 -7 16 -29 2 -28 -18 -28 -7 -2 43 12 22 16 52 15 100 -1 57 -2 60
-5 18 -6 -101 -12 -115 -48 -131 -49 -20 -50 -18 -10 21 28 29 35 43 35 75 0
22 -4 41 -10 41 -5 1 -14 3 -20 4 -5 1 -27 3 -49 4 -21 0 -53 11 -72 24 -42
28 -80 83 -72 104 5 14 0 15 -38 9 -24 -4 -48 -11 -53 -16 -12 -12 18 -122 53
-197 51 -108 120 -144 205 -109 27 11 33 11 33 0 0 -7 -3 -12 -6 -12 -3 1 -31
-3 -61 -7 -41 -6 -50 -10 -35 -16 13 -5 15 -8 5 -8 -8 0 -33 8 -55 18 l-40 18
25 -53 c21 -45 31 -55 63 -64 49 -14 47 -22 -4 -14 l-40 7 7 -29 c4 -16 33
-110 64 -209 57 -179 112 -396 112 -445 0 -14 8 -34 17 -44 12 -14 13 -20 4
-23 -16 -6 -17 -37 -3 -64 6 -10 7 -19 2 -19 -5 0 -7 -11 -5 -24 10 -53 -80
-221 -125 -233 -18 -4 -20 -8 -10 -14 10 -6 2 -19 -31 -53 -31 -32 -42 -50
-37 -62 4 -10 1 -21 -6 -25 -11 -7 -11 -12 0 -29 8 -14 9 -20 1 -20 -6 0 -9
-7 -5 -15 4 -13 2 -13 -14 -5 -16 9 -18 18 -14 63 9 86 23 115 90 190 97 107
127 204 113 366 -4 45 -9 84 -11 87 -14 13 -926 -136 -1248 -205 -129 -27
-307 -64 -395 -81 -214 -41 -234 -47 -272 -81 -39 -34 -110 -56 -328 -104
-128 -28 -171 -42 -216 -70 -57 -35 -107 -50 -334 -101 -127 -28 -401 -118
-422 -138 -7 -6 -16 -40 -19 -74 -6 -56 -9 -62 -29 -62 -38 0 -253 -39 -363
-65 -57 -14 -155 -45 -218 -70 -64 -25 -148 -53 -187 -64 -40 -10 -126 -35
-192 -54 -66 -19 -176 -47 -245 -62 -69 -15 -218 -49 -331 -76 l-206 -50 -1
-41 c-2 -31 4 -48 20 -67 l23 -25 -27 17 c-35 22 -35 22 -41 -10 -3 -16 -16
-50 -28 -78 -12 -27 -21 -55 -20 -61 1 -7 -6 -15 -15 -18 -9 -3 -14 -12 -11
-20 3 -8 -10 -56 -30 -107 -19 -52 -57 -159 -84 -239 -67 -195 -80 -232 -85
-227 -2 2 2 23 10 45 9 23 13 42 10 42 -3 0 -85 -23 -182 -51 -97 -28 -213
-60 -256 -70 -44 -11 -84 -23 -90 -28 -12 -9 -207 -71 -381 -121 -155 -44
-442 -138 -476 -156 -17 -8 -29 -23 -29 -33 0 -11 -3 -28 -6 -38 -5 -15 -4
-15 5 -3 8 12 11 6 11 -26 0 -39 -2 -42 -52 -70 -29 -15 -113 -56 -187 -91
-74 -34 -136 -65 -139 -68 -3 -3 2212 -5 4921 -5 l4927 0 0 935 c0 885 -1 934
-17 929 -17 -5 -17 -5 0 6 16 10 17 54 17 676 l0 665 -72 -6 c-40 -3 -203 -15
-363 -26 -476 -33 -1238 -109 -1644 -165 l-43 -6 6 -46 c9 -69 51 -148 94
-177 46 -31 104 -32 292 -5 202 30 219 22 25 -11 -159 -28 -193 -29 -307 -17
-9 1 -15 4 -13 6 2 2 -15 20 -37 40 -85 77 -111 162 -148 500 -40 361 -60 529
-85 707 -14 99 -41 306 -60 460 -47 373 -43 355 -65 355 -10 0 -21 4 -25 9 -3
6 7 6 27 1 17 -6 35 -14 38 -20 4 -6 19 -111 34 -233 15 -122 47 -362 72 -534
24 -172 44 -314 44 -316 0 -3 11 -7 25 -9 16 -4 25 -1 25 8 0 7 5 16 12 20 7
4 8 3 4 -4 -9 -15 -1 -15 26 -1 15 8 19 8 14 0 -6 -10 3 -13 32 -10 4 0 6 7 4
15 -2 8 1 14 7 14 5 0 17 3 27 7 11 4 15 2 11 -4 -4 -6 2 -18 12 -27 15 -14
19 -15 24 -3 3 8 0 20 -6 26 -8 8 -8 11 0 11 7 0 15 -5 18 -10 5 -8 11 -7 21
1 16 13 19 33 4 24 -6 -3 -7 1 -4 9 7 17 24 22 24 6 0 -5 9 -14 20 -20 18 -10
19 -9 4 27 -8 21 -23 56 -34 78 -10 22 -25 65 -34 95 l-16 55 20 -24 c11 -13
20 -19 20 -15 1 5 9 -7 20 -26 l19 -35 -4 55 c-3 30 -8 74 -11 97 -5 36 -3 43
11 43 12 0 16 -6 12 -20 -3 -11 -1 -17 4 -14 5 3 16 -12 25 -33 33 -83 84
-177 91 -169 3 3 -6 40 -20 83 -14 43 -28 92 -32 108 -4 17 -9 39 -12 50 -7
30 -13 72 -7 53 3 -10 10 -18 15 -18 5 0 9 -9 9 -19 0 -11 6 -26 13 -33 6 -7
14 -22 15 -33 4 -23 10 -31 18 -23 3 3 -2 22 -10 42 -8 20 -11 34 -5 30 6 -4
8 12 5 45 -3 30 -1 49 5 46 5 -4 9 -13 9 -21 0 -8 11 -32 25 -52 14 -20 25
-40 25 -45 0 -5 12 -34 27 -65 30 -64 42 -55 20 15 -17 52 -37 145 -37 169 0
9 5 12 11 8 6 -3 3 6 -7 21 -11 17 -14 29 -7 33 5 4 15 16 22 27 12 19 12 19
8 -5 -3 -14 -1 -36 3 -50 6 -18 8 -20 9 -7 1 25 18 12 36 -28 8 -19 22 -50 30
-69 8 -19 15 -37 15 -40 0 -3 12 -17 26 -32 24 -23 26 -24 21 -5 -3 12 -1 21
4 21 5 0 9 4 9 10 0 5 -7 7 -15 4 -18 -7 -21 21 -3 32 7 4 8 3 4 -4 -4 -7 -2
-12 3 -12 6 0 19 -18 28 -40 10 -22 22 -38 28 -36 5 2 9 7 8 12 0 5 5 15 13
22 12 11 14 10 14 -3 0 -8 4 -15 10 -15 5 0 13 -12 16 -27 7 -27 7 -27 15 -4
11 29 -1 81 -66 281 -47 146 -85 288 -85 320 0 6 4 9 9 6 5 -3 5 12 0 35 -19
82 0 48 37 -66 24 -75 40 -111 45 -103 7 10 9 9 9 -4 0 -22 19 -72 25 -66 3 3
-4 54 -14 114 -37 207 -51 374 -32 374 7 0 10 -4 7 -8 -2 -4 -1 -14 4 -22 6
-10 8 -6 6 15 -1 17 2 36 8 43 7 10 6 16 -5 22 -10 7 -11 12 -3 20 7 7 17 -13
34 -67 13 -43 34 -103 46 -133 l22 -55 -4 50 c-2 28 -8 88 -14 135 -5 47 -9
121 -9 165 l2 80 8 -63 c4 -35 15 -85 23 -110 8 -26 19 -83 26 -127 14 -101
52 -264 57 -248 2 6 -1 69 -7 140 -14 155 -22 495 -11 438 7 -36 8 -37 10 -10
1 23 3 27 11 15 9 -14 6 -142 -3 -157 -3 -5 1 -14 9 -21 12 -11 14 -9 15 10 1
14 5 6 12 -19 5 -24 14 -43 18 -43 5 0 5 10 0 23 -5 13 -8 51 -7 85 1 34 -1
62 -4 62 -4 0 -7 7 -7 15 0 8 4 12 8 9 4 -2 10 4 12 13 3 10 5 -9 6 -42 0 -33
4 -85 9 -115 l10 -55 1 60 c2 33 4 71 6 85 1 14 6 63 10 110 3 47 11 89 16 95
6 5 9 4 9 -5 1 -9 7 -4 15 10 14 24 14 22 9 -25 -5 -43 -8 -66 -16 -102 -11
-52 -14 -84 -8 -88 11 -7 36 67 65 195 15 63 33 135 41 160 8 25 22 67 30 93
30 96 21 40 -13 -83 -32 -116 -47 -177 -59 -240 -2 -14 -11 -43 -18 -65 -14
-40 -26 -83 -33 -118 -6 -36 15 -6 28 37 7 25 16 43 20 41 3 -3 4 8 2 23 l-4
27 16 -25 c13 -21 15 -21 10 -4 -3 13 10 52 36 105 23 46 43 97 45 114 2 16
10 35 17 40 7 6 16 21 20 35 6 24 6 24 -10 5 l-16 -20 7 20 c4 11 10 32 13 48
3 15 10 27 15 27 5 0 6 -10 3 -22 -5 -17 -4 -19 3 -9 6 8 8 30 5 50 -3 24 -2
32 5 23 7 -11 12 -7 20 17 6 17 14 31 17 31 3 0 3 -5 -1 -12 -4 -7 -3 -8 5 -4
9 6 9 11 1 21 -15 18 -4 36 17 28 10 -4 14 -2 9 5 -3 6 -2 13 4 17 6 4 7 11 4
17 -5 7 -2 8 6 3 10 -6 12 -4 7 8 -4 10 0 20 11 26 9 6 14 11 10 11 -11 0 24
40 35 40 5 0 1 -7 -7 -16 -9 -8 -14 -19 -12 -22 2 -4 -5 -20 -15 -37 -10 -16
-30 -54 -45 -82 -14 -29 -29 -53 -33 -53 -3 0 -7 -10 -7 -22 -1 -23 -79 -214
-94 -233 -5 -6 -5 -17 -1 -24 6 -9 11 -10 15 -3 4 6 15 9 26 7 13 -3 17 1 13
11 -3 7 -10 11 -17 7 -6 -3 0 6 13 20 13 15 28 24 34 20 5 -3 7 3 3 14 -4 13
0 25 11 34 16 13 17 12 4 -4 -12 -15 -12 -20 5 -33 10 -9 14 -13 7 -9 -10 4
-41 -33 -35 -42 5 -9 -12 -33 -23 -33 -8 0 -17 -5 -21 -12 -4 -7 -3 -8 4 -4 7
4 12 3 12 -3 0 -5 -5 -11 -12 -13 -6 -2 -12 -12 -14 -22 -2 -12 10 -6 41 21
23 21 42 43 41 50 0 6 2 11 5 10 4 -1 16 7 28 17 12 11 24 16 27 13 4 -4 25 8
48 25 88 68 86 62 -7 -21 -33 -29 -61 -50 -63 -48 -6 5 -109 -102 -109 -112 0
-4 -18 -29 -40 -57 -59 -71 -78 -105 -68 -115 6 -6 15 -3 24 7 9 12 10 15 2
10 -16 -9 -16 -1 -3 25 6 10 16 19 22 19 7 0 6 -6 -2 -17 -7 -10 2 -2 19 17
17 19 37 35 44 35 7 0 11 9 9 19 -3 13 1 17 12 13 8 -3 18 -1 22 5 5 7 2 8 -6
3 -9 -6 -11 -4 -5 5 6 10 11 9 21 -4 11 -16 13 -16 25 6 11 21 11 22 -4 9 -12
-9 -17 -10 -17 -2 0 14 61 42 73 34 4 -2 15 1 24 9 30 24 -2 -24 -37 -57 -45
-42 -147 -170 -166 -208 l-15 -32 28 34 c54 66 205 216 187 186 -16 -28 -15
-27 24 9 77 73 50 32 -36 -54 -46 -47 -81 -79 -76 -71 5 9 3 12 -5 7 -6 -4 -9
-12 -5 -18 3 -5 -5 -22 -19 -36 -33 -35 -137 -190 -137 -203 0 -6 29 24 65 67
36 44 71 79 78 79 7 0 12 7 12 15 0 8 7 15 15 15 8 0 15 7 15 15 1 8 6 14 13
12 7 -1 11 4 10 10 -2 7 3 12 10 10 6 -1 11 1 10 5 -2 5 0 9 5 10 4 2 17 12
30 23 13 13 23 16 25 10 3 -7 15 -2 30 12 14 13 -9 -20 -51 -73 -43 -53 -77
-100 -77 -104 0 -5 -10 -20 -22 -33 l-23 -25 30 19 30 18 -24 -27 c-34 -37
-12 -34 24 3 16 17 35 28 43 25 7 -2 11 -1 8 4 -3 4 6 14 19 21 14 7 25 17 25
22 0 4 5 8 12 8 9 0 9 -3 0 -12 -16 -16 -15 -31 1 -23 6 3 4 0 -7 -7 -31 -21
-62 -50 -46 -42 12 6 13 5 2 -7 -7 -8 -20 -14 -30 -14 -9 0 -17 -4 -17 -10 0
-5 -4 -17 -9 -24 -5 -8 4 -5 21 7 17 12 35 22 41 22 5 0 21 12 36 26 14 15 26
22 26 16 0 -11 -61 -62 -100 -82 -31 -17 -55 -40 -41 -40 6 0 -3 -14 -21 -31
l-33 -31 47 34 c26 18 45 38 43 45 -2 6 3 14 11 17 25 9 27 7 13 -11 -12 -14
-12 -16 1 -11 8 3 14 12 14 21 -1 8 10 20 25 26 23 10 24 10 9 -2 -10 -8 -18
-17 -18 -20 0 -10 33 5 68 31 18 14 34 23 37 21 2 -2 -34 -36 -81 -74 -46 -39
-84 -74 -84 -78 0 -5 -4 -6 -9 -2 -6 3 -15 -4 -21 -15 -14 -25 -5 -25 27 0 14
11 29 17 34 14 5 -3 8 0 7 6 -2 7 6 17 17 23 11 7 22 14 25 17 9 11 68 50 74
50 3 0 6 -5 6 -12 0 -6 -3 -9 -6 -6 -6 7 -78 -57 -73 -65 2 -3 -5 -13 -16 -22
-14 -11 -15 -14 -3 -8 10 5 47 37 84 72 49 48 64 58 59 40 -8 -25 -90 -154
-112 -177 -19 -20 -16 -24 7 -10 11 7 20 16 20 20 0 5 5 8 12 8 6 0 20 8 31
17 11 10 17 12 13 6 -5 -9 0 -13 13 -13 14 0 19 5 15 15 -4 10 -2 13 8 10 25
-10 40 62 44 205 4 126 18 240 31 240 3 0 2 -21 -2 -48 -8 -55 -8 -149 0 -163
4 -5 12 -9 18 -9 9 0 9 3 -1 8 -10 7 -10 16 0 42 10 30 12 31 19 14 5 -13 8
-15 8 -4 1 9 -4 21 -10 27 -8 8 -8 17 0 32 7 12 18 52 26 89 l14 67 -5 -67
c-2 -38 -1 -68 3 -68 4 0 9 19 11 43 1 23 6 56 10 72 l9 30 4 -37 c3 -20 1
-34 -3 -32 -4 3 -8 -12 -7 -33 1 -34 2 -35 9 -13 6 19 8 11 9 -32 1 -32 5 -58
10 -58 5 0 13 -15 16 -32 4 -18 10 -37 14 -43 3 -5 6 -14 6 -20 1 -5 6 -9 12
-8 6 1 9 -6 6 -17 -4 -14 -1 -18 14 -14 16 5 18 17 18 127 0 68 6 149 14 182
15 64 107 265 122 265 5 0 8 3 8 8 -3 18 2 35 8 29 4 -4 12 6 19 23 7 16 19
30 26 29 10 0 10 -2 1 -6 -7 -2 -13 -9 -13 -14 0 -4 7 -6 15 -3 8 4 15 13 15
21 0 8 5 11 11 8 6 -4 9 0 7 11 -2 12 3 19 13 19 9 0 26 11 38 25 16 18 19 20
12 5 -5 -11 -22 -33 -36 -50 -15 -16 -36 -46 -46 -65 -11 -19 -28 -48 -39 -65
-10 -16 -19 -37 -19 -47 -1 -9 -5 -18 -10 -20 -4 -1 -11 -21 -15 -43 l-7 -40
21 33 c11 18 20 37 20 42 0 6 4 10 9 10 5 0 7 8 4 19 -5 21 7 33 24 23 14 -9
-13 -132 -29 -132 -5 0 -5 -6 0 -15 4 -9 3 -53 -5 -103 -18 -125 -24 -252 -14
-287 l9 -30 2 30 c5 67 17 147 35 240 8 39 16 88 19 110 5 47 25 95 39 95 5 0
4 -6 -2 -14 -6 -7 -13 -33 -14 -58 -2 -25 -8 -51 -12 -58 -6 -9 -4 -11 5 -5
10 6 11 1 6 -21 -5 -22 -4 -25 4 -12 6 9 12 35 14 57 5 49 36 135 81 224 l35
68 0 2899 0 2900 -1179 0 -1178 0 -11 -42 -11 -43 5 43 4 42 -197 0 c-182 -1
-198 -3 -214 -21 -10 -12 -23 -17 -35 -13 -14 4 -16 3 -5 -4 11 -8 11 -10 0
-15 -8 -4 -3 -5 11 -3 14 2 19 1 13 -1 -7 -3 -13 -9 -13 -14 0 -6 -4 -8 -9 -4
-5 3 -12 1 -16 -4 -3 -6 5 -8 20 -5 20 3 23 1 18 -12 -5 -12 -3 -15 6 -9 19
11 -3 -28 -25 -46 -15 -12 -17 -12 -9 0 6 11 4 13 -11 7 -15 -6 -16 -5 -7 5
10 10 9 15 -5 26 -9 8 -11 12 -5 8 14 -7 12 42 -2 65 -5 8 -4 11 2 7 12 -7 25
17 16 27 -4 3 -1887 6 -4185 6 l-4178 0 0 -5411z m10205 5381 c3 -5 -1 -10
-10 -10 -9 0 -13 5 -10 10 3 6 8 10 10 10 2 0 7 -4 10 -10z m-4070 -107 c-17
-17 -22 -16 -29 3 -9 24 3 35 23 22 16 -10 17 -14 6 -25z m-3495 -422 c6 -151
16 -286 22 -300 l9 -26 37 40 c20 22 50 56 65 75 33 42 22 14 -30 -72 -45 -76
-38 -104 31 -111 53 -6 57 -17 6 -17 -85 0 -33 -8 133 -21 92 -7 167 -16 167
-19 0 -4 -70 -12 -156 -19 -187 -15 -191 -16 -167 -44 18 -19 18 -20 -5 -8
-28 15 -42 7 -37 -20 4 -22 13 -35 54 -84 14 -17 5 -11 -20 13 -46 43 -89 62
-89 38 0 -28 -21 -383 -25 -416 -2 -19 -4 -66 -5 -105 -4 -131 -17 -17 -29
248 -7 138 -14 263 -17 276 -5 23 -7 22 -61 -30 l-56 -54 36 65 c32 58 34 67
21 84 -8 11 -14 16 -14 10 0 -5 -4 -3 -8 3 -5 8 -66 17 -180 25 -95 6 -169 15
-165 18 5 4 73 13 153 19 80 6 155 14 167 17 20 5 21 8 8 21 -9 8 -13 19 -10
24 4 5 1 9 -4 9 -6 0 -11 5 -11 10 0 7 6 7 20 0 17 -9 19 -8 13 7 -3 10 -16
29 -27 43 -38 43 -52 64 -38 56 6 -4 12 -3 12 3 0 5 -4 13 -10 16 -5 3 -15 15
-21 26 -10 20 -10 20 15 4 14 -10 26 -21 26 -26 0 -5 4 -9 10 -9 5 0 1 15 -10
33 -33 53 -23 50 32 -10 66 -74 77 -81 95 -57 16 23 17 44 1 44 -10 0 -10 2 0
8 11 8 26 268 33 587 l2 70 8 -85 c4 -47 13 -208 19 -359z m5700 348 c0 -6 -4
-7 -10 -4 -5 3 -10 11 -10 16 0 6 5 7 10 4 6 -3 10 -11 10 -16z m-15 -39 c-3
-5 0 -10 7 -10 10 0 10 -2 -1 -9 -11 -7 -10 -11 5 -20 17 -11 16 -11 -5 -5
-21 5 -23 3 -18 -15 3 -12 0 -21 -6 -21 -7 0 -5 -5 3 -10 11 -7 11 -10 2 -10
-7 0 -11 -4 -8 -9 3 -5 -1 -14 -9 -21 -8 -7 -12 -17 -8 -24 3 -6 0 -6 -8 2
-20 18 -34 15 -18 -5 12 -15 12 -16 -4 -10 -10 4 -16 3 -13 -1 2 -4 -1 -18 -9
-31 -12 -24 -12 -24 -11 8 0 17 5 31 10 31 4 0 6 6 3 14 -3 7 5 29 18 49 13
19 21 38 17 42 -4 5 -1 5 6 1 7 -4 9 -13 6 -19 -5 -8 -3 -8 7 1 9 8 10 15 2
23 -7 7 -4 17 11 34 22 26 32 32 21 15z m1275 -53 c0 -12 4 -17 8 -12 12 17
42 18 36 0 -4 -8 -1 -15 7 -15 7 0 9 -3 5 -7 -4 -4 10 -12 31 -18 l38 -11 -48
-8 c-43 -7 -46 -9 -36 -28 9 -17 8 -19 -9 -14 -14 5 -21 1 -25 -14 -6 -22 -27
-28 -27 -7 0 6 -4 18 -9 26 -8 13 -12 13 -27 0 -16 -13 -16 -12 -6 7 14 27 7
34 -37 35 l-36 1 35 10 c19 6 41 12 49 14 10 3 10 10 -5 32 -15 23 -15 25 -1
14 18 -16 37 -8 37 14 0 8 5 12 10 9 6 -3 10 -16 10 -28z m-3800 3 c0 -5 7 -7
15 -4 11 5 13 2 9 -10 -5 -12 0 -16 17 -16 24 -1 24 -1 3 -13 -12 -7 -19 -18
-16 -26 3 -10 0 -12 -12 -8 -9 4 -16 2 -16 -3 0 -19 -18 -10 -25 13 -12 33
-12 51 0 64 12 15 25 16 25 3z m2474 -163 c-3 -9 -10 -17 -16 -17 -5 0 -6 -5
-3 -11 4 -6 -6 -22 -23 -35 -21 -18 -29 -32 -26 -47 2 -12 1 -15 -2 -7 -4 8
-11 21 -17 28 -7 9 -7 12 0 10 13 -4 50 37 58 63 4 11 11 19 16 19 5 0 9 5 9
11 0 5 -5 7 -12 3 -7 -5 -8 -3 -3 5 10 18 27 -2 19 -22z m-84 -141 c0 -6 -5
-3 -11 7 -6 9 -15 14 -21 11 -7 -4 -8 -2 -4 5 9 14 36 -3 36 -23z m-20 -11 c9
-10 9 -15 1 -15 -6 0 -11 5 -11 11 0 8 -5 7 -15 -1 -13 -11 -14 -10 -9 4 8 20
18 20 34 1z m-7 -45 c-3 -11 -7 -20 -9 -20 -2 0 -4 9 -4 20 0 11 4 20 9 20 5
0 7 -9 4 -20z m-36 -12 c-3 -8 -6 -5 -6 6 -1 11 2 17 5 13 3 -3 4 -12 1 -19z
m1283 -78 c13 -8 13 -10 -2 -10 -9 0 -20 5 -23 10 -8 13 5 13 25 0z m120 -5
c0 -8 -4 -15 -10 -15 -5 0 -7 7 -4 15 4 8 8 15 10 15 2 0 4 -7 4 -15z m-290
-85 c0 -5 -4 -10 -10 -10 -5 0 -10 5 -10 10 0 6 5 10 10 10 6 0 10 -4 10 -10z
m-1203 -18 c-22 -24 -21 -32 3 -32 11 0 20 -3 20 -6 0 -9 -28 -34 -39 -34 -6
0 -16 -9 -23 -20 -15 -23 -33 -27 -25 -6 4 10 1 13 -9 9 -7 -3 -14 -1 -14 5 0
5 12 9 28 8 20 -1 27 3 26 17 -2 15 1 16 14 5 15 -12 15 -11 0 13 -15 24 -15
27 0 42 24 22 39 21 19 -1z m-5596 -50 c-9 -3 -51 32 -51 43 0 3 14 -5 31 -17
16 -12 26 -24 20 -26z m6797 -3 c-2 -6 -8 -10 -13 -10 -5 0 -11 4 -13 10 -2 6
4 11 13 11 9 0 15 -5 13 -11z m-6835 -36 c-7 -2 -21 -2 -30 0 -10 3 -4 5 12 5
17 0 24 -2 18 -5z m5607 -103 c0 -5 -4 -10 -10 -10 -5 0 -10 5 -10 10 0 6 5
10 10 10 6 0 10 -4 10 -10z m-20 -30 c0 -5 -5 -10 -11 -10 -5 0 -7 5 -4 10 3
6 8 10 11 10 2 0 4 -4 4 -10z m1260 1 c0 -6 -4 -13 -10 -16 -5 -3 -10 1 -10 9
0 9 5 16 10 16 6 0 10 -4 10 -9z m-65 -32 c11 -16 1 -19 -13 -3 -7 8 -8 14 -3
14 5 0 13 -5 16 -11z m-1545 -29 c-17 -13 -19 -19 -9 -22 9 -3 5 -7 -9 -10
-21 -6 -22 -5 -6 21 9 15 23 28 31 28 10 0 8 -6 -7 -17z m1470 -24 c-12 -12
-30 8 -30 33 0 11 5 10 20 -4 15 -13 17 -22 10 -29z m-1156 9 c-4 -8 -10 -15
-15 -15 -4 0 -6 7 -3 15 4 8 10 15 15 15 4 0 6 -7 3 -15z m974 -17 c-2 -6 -10
-14 -16 -16 -7 -2 -10 2 -6 12 7 18 28 22 22 4z m847 -28 c-3 -5 -14 -6 -24
-3 -16 4 -17 8 -8 18 13 14 41 0 32 -15z m-7445 0 c0 -5 -7 -10 -16 -10 -8 0
-12 5 -9 10 3 6 10 10 16 10 5 0 9 -4 9 -10z m6520 0 c0 -5 -4 -10 -10 -10 -5
0 -10 5 -10 10 0 6 5 10 10 10 6 0 10 -4 10 -10z m-935 -10 c-3 -5 -14 -10
-23 -9 -14 0 -13 2 3 9 27 11 27 11 20 0z m-319 -7 c-11 -11 -46 -14 -46 -3 0
6 12 10 27 10 14 0 23 -3 19 -7z m194 -7 c0 -3 -4 -8 -10 -11 -5 -3 -10 -1
-10 4 0 6 5 11 10 11 6 0 10 -2 10 -4z m-210 -27 c0 -5 -5 -9 -11 -9 -6 0 -9
-7 -5 -15 6 -17 -9 -21 -19 -5 -4 6 -12 8 -18 4 -7 -3 -4 1 5 9 12 9 14 17 7
24 -7 7 -3 9 15 6 14 -3 26 -9 26 -14z m304 12 c3 -5 -1 -14 -8 -20 -12 -10
-13 -8 -9 8 6 23 9 25 17 12z m-34 -56 c0 -8 -4 -15 -10 -15 -5 0 -10 7 -10
15 0 8 5 15 10 15 6 0 10 -7 10 -15z m-283 -18 c3 -5 1 -7 -4 -4 -14 9 -47
-29 -40 -47 6 -14 -12 -26 -39 -26 -8 0 -14 5 -14 11 0 6 9 8 20 4 11 -4 20
-2 20 4 0 6 -7 11 -15 11 -8 0 -15 5 -15 11 0 6 6 9 13 6 6 -2 18 1 24 9 9 9
9 14 1 16 -6 2 -8 9 -5 15 8 13 44 6 54 -10z m518 3 c-3 -5 -10 -10 -16 -10
-5 0 -9 5 -9 10 0 6 7 10 16 10 8 0 12 -4 9 -10z m-420 -50 c-3 -5 -11 -10
-16 -10 -6 0 -7 5 -4 10 3 6 11 10 16 10 6 0 7 -4 4 -10z m340 -9 c3 -5 1 -12
-5 -16 -5 -3 -10 1 -10 9 0 18 6 21 15 7z m-529 -26 c16 -8 23 -15 16 -15 -8
0 -11 -7 -7 -19 6 -20 -20 -49 -33 -36 -4 4 -1 10 5 12 10 4 9 12 -2 39 -16
39 -17 39 21 19z m-29 -36 c-4 -25 -22 -43 -36 -35 -17 11 -13 24 10 31 13 4
18 12 15 21 -3 8 -1 12 4 9 5 -3 8 -15 7 -26z m227 6 c-4 -8 -11 -15 -16 -15
-6 0 -5 6 2 15 7 8 14 15 16 15 2 0 1 -7 -2 -15z m256 -5 c0 -5 -4 -10 -10
-10 -5 0 -10 5 -10 10 0 6 5 10 10 10 6 0 10 -4 10 -10z m-239 -23 c-10 -9
-11 -8 -5 6 3 10 9 15 12 12 3 -3 0 -11 -7 -18z m-131 -1 c0 -2 -8 -10 -17
-17 -16 -13 -17 -12 -4 4 13 16 21 21 21 13z m154 -10 c-3 -8 -13 -17 -22 -21
-13 -5 -13 -2 3 15 21 24 26 25 19 6z m551 -6 c-3 -5 -12 -10 -18 -10 -7 0 -6
4 3 10 19 12 23 12 15 0z m-823 -25 c11 -15 10 -35 -3 -35 -5 0 -8 4 -4 9 10
17 -16 23 -33 8 -20 -17 -43 -12 -35 9 3 7 9 11 14 8 5 -3 9 0 9 6 0 13 42 9
52 -5z m368 -5 c0 -5 -5 -10 -11 -10 -5 0 -7 5 -4 10 3 6 8 10 11 10 2 0 4 -4
4 -10z m405 -10 c3 -5 1 -10 -4 -10 -6 0 -11 5 -11 10 0 6 2 10 4 10 3 0 8 -4
11 -10z m-803 -52 c-18 -22 -40 -24 -22 -3 7 8 9 15 6 15 -4 0 -1 10 5 22 12
22 12 22 19 3 5 -13 2 -26 -8 -37z m-34 7 c-3 -14 -2 -28 3 -31 5 -2 -12 -25
-37 -50 -25 -24 -50 -42 -55 -38 -5 3 -7 9 -4 14 3 5 1 11 -5 15 -15 10 -12
35 5 35 8 0 15 7 15 15 0 8 7 15 15 15 18 0 18 -2 4 -34 -7 -14 -17 -23 -23
-19 -7 4 -7 1 1 -7 13 -14 37 -4 27 12 -5 7 -2 8 6 3 10 -6 12 -4 8 7 -4 8 2
22 13 31 10 9 19 22 19 28 0 6 -7 3 -16 -5 -16 -17 -39 -12 -28 5 3 5 10 7 15
3 5 -3 9 -2 8 3 -3 17 2 23 17 23 12 0 15 -7 12 -25z m765 -5 c-10 -9 -20 -13
-21 -8 -6 13 19 39 30 32 5 -3 1 -14 -9 -24z m-875 -102 c-2 -13 -9 -22 -17
-20 -7 1 -15 -7 -18 -18 -6 -22 -18 -26 -28 -10 -3 5 3 20 15 32 18 19 22 21
31 8 8 -12 9 -10 4 8 -4 13 -2 22 5 22 6 0 10 -10 8 -22z m1416 -39 c-3 -5
-10 -7 -15 -3 -5 3 -7 10 -3 15 3 5 10 7 15 3 5 -3 7 -10 3 -15z m-1394 7 c0
-3 -4 -8 -10 -11 -5 -3 -10 -1 -10 4 0 6 5 11 10 11 6 0 10 -2 10 -4z m-32
-31 c-3 -3 -9 2 -12 12 -6 14 -5 15 5 6 7 -7 10 -15 7 -18z m-2222 -25 c8 0
14 -7 14 -15 0 -9 7 -18 15 -21 13 -5 12 -9 -5 -24 -11 -9 -20 -25 -20 -34 0
-10 -4 -15 -9 -12 -5 3 -12 -4 -16 -17 -8 -21 -8 -21 -12 6 -2 15 -9 27 -14
27 -6 0 -7 5 -4 10 3 6 -2 10 -12 10 -15 0 -16 2 -3 11 10 7 11 12 3 15 -7 3
-2 14 13 29 13 13 25 32 25 42 1 13 3 11 6 -4 2 -13 11 -23 19 -23z m2168 31
c7 -10 -16 -31 -53 -48 -18 -8 -20 -12 -7 -10 10 1 20 -4 22 -11 1 -7 0 -8 -3
-2 -2 5 -9 8 -14 4 -13 -7 -49 5 -49 17 0 6 5 7 10 4 6 -3 10 -1 10 5 0 7 7
10 15 6 8 -3 15 -1 15 4 0 6 9 10 20 10 11 0 20 5 20 11 0 5 -5 7 -12 3 -7 -4
-8 -3 -4 4 9 14 23 15 30 3z m-96 -79 l22 -19 -26 -11 c-30 -14 -37 -15 -29
-3 3 5 1 12 -5 16 -6 3 -14 -4 -18 -16 -5 -13 -11 -18 -15 -12 -19 31 25 57
51 31 7 -7 12 -9 12 -6 0 4 -7 14 -16 22 -22 22 -2 20 24 -2z m-82 -53 c14
-16 20 -17 33 -6 14 10 14 10 4 -4 -7 -9 -10 -19 -6 -22 3 -4 4 -7 0 -7 -3 0
-13 7 -21 16 -17 16 -36 11 -36 -9 0 -7 4 -6 10 3 7 10 10 11 10 2 0 -7 -7
-15 -15 -18 -23 -9 -18 -23 8 -17 20 4 20 3 4 -7 -10 -7 -30 -9 -44 -5 -24 6
-25 5 -12 -11 12 -15 12 -17 -1 -12 -8 3 -14 13 -13 22 1 16 0 16 -17 -1 -11
-12 -13 -20 -6 -25 19 -12 -2 -20 -23 -8 -18 9 -21 8 -22 -12 0 -13 -3 -17 -6
-10 -2 6 -9 12 -14 12 -6 0 -8 -4 -5 -9 3 -5 -6 -12 -21 -16 -21 -5 -24 -8
-12 -16 11 -7 10 -9 -6 -9 -26 0 -67 -28 -60 -41 4 -5 -2 -6 -11 -2 -13 5 -16
2 -12 -9 4 -9 1 -21 -5 -27 -16 -16 -23 -14 -24 7 -1 9 -4 27 -8 40 -5 14 -3
22 5 22 7 0 10 -7 7 -15 -4 -8 -2 -17 3 -20 6 -4 10 -1 10 4 0 6 8 11 17 11
15 0 14 2 -3 16 -18 15 -18 15 3 9 19 -5 22 -3 16 11 -5 14 -2 16 15 12 18 -5
23 -1 29 20 6 24 7 25 14 7 4 -11 8 -14 8 -7 1 6 8 12 16 12 8 0 15 9 15 21 0
16 4 19 20 14 17 -5 20 -2 20 22 1 23 2 25 11 11 13 -23 42 -12 34 13 -7 20
18 28 30 9 3 -5 1 -10 -4 -10 -6 0 -11 -4 -11 -8 0 -5 6 -9 14 -9 9 0 13 8 10
24 -3 15 -1 22 6 18 13 -8 13 8 0 21 -6 6 -3 10 9 11 11 1 27 -7 37 -18z
m-109 -51 c-3 -8 -6 -5 -6 6 -1 11 2 17 5 13 3 -3 4 -12 1 -19z m483 -48 c0
-5 -5 -10 -11 -10 -5 0 -7 5 -4 10 3 6 8 10 11 10 2 0 4 -4 4 -10z m1562 -115
c-5 -31 -34 -25 -43 8 -5 20 -4 27 7 27 8 0 14 5 14 12 0 6 6 4 13 -6 8 -10
12 -29 9 -41z m-2280 -43 c-5 -15 -13 -27 -19 -27 -5 0 -18 -8 -27 -18 -10
-10 -21 -15 -25 -11 -3 4 0 9 7 11 14 5 17 33 3 33 -10 0 -27 -39 -23 -52 1
-5 -2 -8 -8 -8 -5 0 -10 12 -10 26 0 17 4 23 12 18 8 -5 9 -2 5 10 -4 10 -3
15 3 11 6 -3 10 -1 10 5 0 6 5 8 10 5 6 -3 10 -2 10 4 0 5 9 12 19 16 14 4 18
11 14 23 -6 15 -5 15 11 -1 14 -13 16 -23 8 -45z m-117 -31 c3 -5 2 -12 -3
-15 -5 -3 -9 1 -9 9 0 17 3 19 12 6z m400 -21 c-10 -11 -23 -20 -28 -20 -6 0
0 11 13 25 27 29 42 25 15 -5z m-392 -25 c3 -7 -1 -16 -9 -19 -23 -9 -24 -8
-17 11 5 12 2 15 -9 11 -8 -4 -20 -3 -27 1 -7 5 3 8 23 9 21 1 36 -4 39 -13z
m-69 -17 c-2 -3 -13 -6 -24 -5 -24 2 -18 13 9 13 11 0 18 -4 15 -8z m386 -29
c-23 -22 -44 -39 -46 -36 -7 7 60 76 75 76 7 1 -6 -17 -29 -40z m1686 16 c3
-8 3 -19 -1 -25 -10 -16 -35 7 -28 26 7 18 22 18 29 -1z m-2086 -26 c-7 -11
-14 -18 -17 -15 -3 3 0 12 7 21 18 21 23 19 10 -6z m1606 10 c8 -14 -11 -33
-25 -25 -11 7 -4 36 9 36 5 0 12 -5 16 -11z m1899 -166 c2 -7 12 -10 22 -7 16
5 15 3 -2 -10 -16 -14 -18 -20 -7 -36 6 -10 9 -26 6 -35 -8 -21 12 -19 26 3
11 16 11 16 6 -1 -3 -11 0 -20 9 -23 8 -4 15 -12 15 -20 0 -8 6 -11 15 -8 8 4
12 11 8 17 -3 6 -1 7 5 3 7 -4 32 23 62 65 62 89 65 79 5 -21 -24 -41 -40 -77
-36 -80 5 -3 11 -15 15 -27 4 -13 12 -23 17 -23 6 0 7 -4 4 -10 -3 -5 0 -7 7
-5 8 3 18 -7 25 -26 7 -17 17 -28 22 -24 6 3 11 2 11 -4 0 -18 31 -41 58 -42
27 -1 27 -1 -3 -9 -28 -7 -27 -8 15 -10 84 -3 91 -17 12 -25 -65 -6 -72 -9
-67 -26 5 -14 1 -19 -12 -19 -19 0 -43 -47 -43 -83 0 -9 -7 -17 -15 -17 -9 0
-12 -6 -8 -17 4 -11 3 -14 -5 -9 -26 16 -11 -12 70 -126 27 -38 46 -68 44 -68
-2 0 -30 33 -64 73 -73 88 -103 98 -98 29 2 -28 0 -42 -8 -39 -6 2 -11 10 -11
17 0 7 -10 15 -22 16 -13 2 -23 -1 -23 -7 0 -5 4 -8 8 -5 4 2 13 -4 20 -15 7
-10 8 -19 3 -19 -6 0 -13 5 -16 10 -4 6 -14 9 -23 8 -11 -2 -16 3 -15 16 0 10
-3 14 -7 10 -5 -5 -14 -64 -21 -131 -7 -68 -16 -123 -20 -123 -3 0 -10 50 -14
112 -4 61 -10 106 -14 99 -6 -10 -12 -9 -23 3 -12 11 -18 12 -27 3 -10 -9 -12
-9 -9 3 2 8 -7 19 -19 25 -13 5 -23 13 -23 18 0 4 -6 5 -12 1 -22 -14 -48 -11
-48 5 -1 12 -6 9 -23 -9 -12 -14 -40 -46 -61 -70 -42 -48 -40 -41 6 28 16 23
26 47 23 52 -3 6 1 13 11 17 13 5 9 11 -22 29 -33 20 -33 30 -1 25 4 -1 3 8
-3 18 -6 11 -10 24 -9 28 1 4 1 17 0 28 -2 19 -3 18 -11 -2 -11 -26 -25 -30
-34 -8 -3 8 2 19 12 24 9 6 12 11 5 11 -12 0 -6 40 7 40 5 0 6 9 3 20 -3 12
-14 20 -29 21 -13 1 -28 3 -34 4 -5 1 -38 3 -72 4 -71 1 -72 9 -2 17 27 3 58
7 69 9 11 2 31 4 45 4 20 1 22 3 10 11 -13 9 -13 11 0 20 13 8 12 11 -5 24
-18 14 -19 15 -2 16 11 0 22 12 28 29 7 20 15 28 26 24 9 -4 14 0 13 8 -4 27
0 40 10 34 19 -12 10 37 -17 83 l-26 47 34 -32 c50 -47 56 -41 17 15 -41 57
-50 72 -45 72 2 0 25 -27 52 -60 43 -54 51 -59 79 -55 37 4 88 25 98 40 7 10
24 163 20 179 -2 4 1 18 5 30 5 14 10 -6 15 -64 5 -47 10 -91 13 -97z m-3580
107 c3 -5 1 -10 -4 -10 -6 0 -11 5 -11 10 0 6 2 10 4 10 3 0 8 -4 11 -10z
m1715 0 c0 -5 -2 -10 -4 -10 -3 0 -8 5 -11 10 -3 6 -1 10 4 10 6 0 11 -4 11
-10z m40 1 c0 -6 -4 -13 -10 -16 -5 -3 -10 1 -10 9 0 9 5 16 10 16 6 0 10 -4
10 -9z m370 -11 c0 -5 -2 -10 -4 -10 -3 0 -8 5 -11 10 -3 6 -1 10 4 10 6 0 11
-4 11 -10z m40 -26 c0 -16 -16 -19 -25 -4 -8 13 4 32 16 25 5 -4 9 -13 9 -21z
m-2210 2 c0 -2 -7 -7 -16 -10 -8 -3 -12 -2 -9 4 6 10 25 14 25 6z m1760 -31
c0 -8 -4 -15 -10 -15 -5 0 -10 7 -10 15 0 8 5 15 10 15 6 0 10 -7 10 -15z
m110 -5 c0 -5 -7 -7 -15 -4 -8 4 -12 10 -9 15 6 11 24 2 24 -11z m1650 0 c0
-5 -2 -10 -4 -10 -3 0 -8 5 -11 10 -3 6 -1 10 4 10 6 0 11 -4 11 -10z m-3040
-10 c0 -5 -5 -10 -11 -10 -5 0 -7 5 -4 10 3 6 8 10 11 10 2 0 4 -4 4 -10z
m2000 -11 c0 -24 -23 -21 -28 4 -2 10 3 17 12 17 10 0 16 -9 16 -21z m1090
-49 c0 -5 -4 -10 -10 -10 -5 0 -10 5 -10 10 0 6 5 10 10 10 6 0 10 -4 10 -10z
m-3290 -4 c0 -3 -4 -8 -10 -11 -5 -3 -10 -1 -10 4 0 6 5 11 10 11 6 0 10 -2
10 -4z m106 -31 c-20 -20 -21 -29 -1 -21 8 3 15 1 15 -4 0 -16 -30 -11 -37 5
-3 9 2 22 13 30 24 17 31 11 10 -10z m-59 -67 c-3 -8 -6 -5 -6 6 -1 11 2 17 5
13 3 -3 4 -12 1 -19z m-13 -30 c-3 -4 -13 -12 -24 -18 -15 -8 -17 -7 -13 11 4
16 8 18 14 7 6 -9 9 -6 9 12 0 19 2 22 9 10 6 -8 7 -18 5 -22z m-154 -102 c0
-2 -8 -10 -17 -17 -16 -13 -17 -12 -4 4 13 16 21 21 21 13z m-93 -23 c-4 -3
-2 -12 4 -20 8 -9 8 -13 1 -13 -6 0 -16 -10 -23 -21 -7 -15 -8 -19 0 -15 7 5
9 1 5 -8 -3 -9 -10 -13 -15 -10 -15 9 -10 -13 6 -26 8 -7 15 -18 15 -24 0 -6
-5 -3 -11 7 -12 21 -29 22 -29 2 0 -8 -4 -15 -8 -15 -5 0 -21 -24 -37 -52 -15
-29 -38 -66 -50 -83 -12 -16 -56 -85 -99 -152 -42 -68 -91 -137 -109 -154 -30
-30 -30 -31 -7 -25 60 18 60 18 54 2 -6 -16 -15 -19 -44 -17 -10 0 -11 -1 -2
-5 32 -14 1 -61 -37 -55 -8 1 -10 -2 -5 -10 4 -7 3 -10 -3 -6 -6 4 -21 -2 -33
-13 -25 -22 -35 -26 -25 -10 3 6 -1 17 -9 26 -9 8 -16 14 -17 12 0 -2 -2 -11
-4 -21 -5 -27 -15 -34 -24 -18 -7 10 -10 9 -16 -8 -3 -11 -3 -25 0 -31 3 -5 1
-10 -4 -10 -6 0 -11 5 -11 11 0 5 -5 7 -10 4 -6 -4 -8 -11 -5 -16 3 -5 -2 -6
-11 -2 -12 4 -15 3 -10 -5 5 -8 2 -10 -8 -6 -10 4 -16 1 -16 -7 0 -7 -3 -10
-6 -6 -3 3 -18 -5 -32 -18 -14 -13 -29 -22 -32 -20 -10 6 -101 -27 -133 -48
-14 -9 -31 -17 -37 -17 -6 0 -8 -6 -4 -12 6 -10 4 -10 -7 -2 -20 16 -35 12
-164 -46 -121 -55 -228 -90 -241 -79 -9 8 -15 5 -24 -11 -6 -12 -17 -19 -25
-16 -7 2 -15 -4 -18 -15 -3 -10 -11 -19 -19 -19 -10 0 -10 2 2 10 8 5 11 12 7
16 -3 4 -13 1 -22 -6 -15 -13 -45 -7 -45 9 0 5 10 7 22 3 14 -3 19 -1 14 6 -4
7 13 21 45 37 28 15 48 22 44 16 -4 -8 2 -7 19 1 14 6 26 16 26 21 0 6 3 7 7
4 9 -9 34 13 27 24 -3 5 2 9 10 9 8 0 21 9 29 21 9 12 18 16 21 10 4 -5 -3
-15 -15 -21 -39 -21 -5 -32 37 -11 39 19 71 33 149 66 22 9 89 41 148 71 89
45 106 51 97 34 -11 -20 -10 -21 12 -15 12 4 26 12 29 18 4 5 14 7 23 4 10 -4
24 1 36 13 18 18 74 51 85 50 3 0 17 7 32 17 14 9 34 19 45 20 10 2 31 11 45
20 22 14 26 15 19 3 -4 -8 0 -6 8 4 14 17 14 21 1 36 -8 9 -12 20 -8 24 4 4 0
4 -10 0 -9 -3 -15 -9 -12 -13 2 -4 -11 -15 -30 -24 -21 -10 -35 -12 -35 -6 0
5 -4 7 -10 4 -5 -3 -10 0 -10 7 0 9 -3 9 -10 -2 -8 -13 -11 -13 -22 -1 -7 8
-8 11 -2 8 5 -3 34 16 64 44 29 27 58 49 63 49 6 0 7 3 4 6 -4 4 3 15 15 25
11 11 18 19 14 19 -5 0 7 21 26 48 18 26 39 58 46 72 22 44 38 69 55 87 8 10
16 21 16 26 1 4 4 7 9 8 13 1 32 21 32 33 0 6 -5 4 -11 -4 -9 -13 -10 -13 -6
0 2 8 13 15 24 14 12 0 20 6 19 15 -1 9 4 15 11 14 7 -2 10 4 7 12 -5 11 -1
14 12 9 15 -5 16 -4 5 4 -12 9 -12 13 -2 26 8 9 20 16 27 16 8 0 14 6 14 13 0
21 37 50 52 41 7 -4 10 -4 6 0 -6 7 20 46 31 46 2 0 1 -3 -2 -7z m50 -28 c0
-8 -4 -12 -9 -9 -4 3 -8 9 -8 15 0 5 4 9 8 9 5 0 9 -7 9 -15z m-4522 -137 c4
-27 10 -36 20 -31 9 3 15 -1 15 -10 0 -8 10 -18 23 -22 l22 -7 -23 -6 c-13 -4
-23 -10 -23 -14 3 -29 -1 -37 -13 -32 -9 4 -16 -8 -21 -38 -7 -34 -9 -38 -12
-18 -6 36 -24 70 -39 70 -8 0 -11 6 -8 14 4 9 -3 16 -18 19 -20 3 -19 5 10 12
26 6 31 11 27 26 -5 14 -2 17 9 13 13 -5 16 2 17 37 1 48 4 44 14 -13z m7645
-68 c0 -5 -4 -10 -9 -10 -6 0 -13 5 -16 10 -3 6 1 10 9 10 9 0 16 -4 16 -10z
m-2790 -20 c0 -5 -5 -10 -11 -10 -5 0 -7 5 -4 10 3 6 8 10 11 10 2 0 4 -4 4
-10z m2806 -67 c-10 -10 -19 5 -10 18 6 11 8 11 12 0 2 -7 1 -15 -2 -18z m44
17 c0 -5 -4 -10 -10 -10 -5 0 -10 5 -10 10 0 6 5 10 10 10 6 0 10 -4 10 -10z
m-3140 -10 c0 -5 -5 -10 -11 -10 -5 0 -7 5 -4 10 3 6 8 10 11 10 2 0 4 -4 4
-10z m3730 -10 c0 -5 -2 -10 -4 -10 -3 0 -8 5 -11 10 -3 6 -1 10 4 10 6 0 11
-4 11 -10z m-170 -104 c0 -3 -4 -8 -10 -11 -5 -3 -10 -1 -10 4 0 6 5 11 10 11
6 0 10 -2 10 -4z m-4220 -45 c0 -5 -7 -11 -15 -15 -15 -5 -20 5 -8 17 9 10 23
9 23 -2z m2219 -36 c139 -33 269 -123 341 -235 74 -115 106 -290 76 -411 -9
-35 -32 -97 -52 -137 -38 -79 -75 -112 -187 -173 -60 -32 -89 -35 -40 -4 48
30 71 64 78 114 5 41 11 50 42 66 19 11 43 35 54 57 25 49 24 62 -1 21 -11
-18 -22 -33 -25 -33 -9 0 3 68 15 90 14 26 12 62 -4 101 -20 48 -48 70 -96 76
-35 5 -45 2 -70 -22 -31 -30 -31 -45 0 -45 30 0 53 -42 40 -74 -8 -23 -13 -25
-30 -16 -23 12 -25 23 -8 53 9 18 5 17 -25 -8 -38 -32 -47 -68 -26 -108 10
-19 9 -20 -2 -9 -8 7 -19 27 -25 45 -11 33 -39 39 -57 14 -5 -7 -7 9 -4 35 6
59 37 103 93 128 68 31 122 35 167 11 21 -10 33 -14 27 -6 -5 7 -17 37 -26 66
-49 163 -115 219 -258 219 -39 0 -100 -7 -136 -16 -37 -9 -82 -13 -103 -9 -36
5 -38 4 -32 -17 4 -13 19 -33 33 -46 l27 -23 -45 20 c-67 29 -236 71 -287 71
-24 0 -57 -7 -73 -15 -39 -20 -70 -74 -70 -121 l1 -39 22 30 c54 74 81 95 143
110 57 14 65 14 110 -3 l49 -18 0 -269 c0 -282 7 -348 47 -430 l19 -40 -40 45
c-43 48 -40 48 -44 -12 -2 -21 32 -78 46 -78 25 0 57 13 52 20 -3 5 3 6 14 3
35 -9 242 116 299 181 35 41 44 39 11 -2 -73 -94 -131 -141 -260 -206 -72 -36
-142 -66 -155 -66 -13 0 -24 -4 -24 -10 0 -16 -72 -11 -115 9 -45 20 -86 58
-123 114 -13 20 -30 37 -37 37 -7 0 -15 8 -18 18 -7 20 -36 69 -57 93 -31 36
-36 45 -63 107 -53 123 -33 252 57 361 25 30 48 68 52 84 9 41 69 104 173 181
134 100 230 134 381 135 47 0 114 -6 149 -14z m-1899 -85 c-18 -12 -43 -13
-36 -2 2 4 15 8 28 9 18 2 19 0 8 -7z m-313 -45 c0 -8 -4 -15 -9 -15 -10 0
-11 14 -1 23 9 10 10 9 10 -8z m-27 -15 c0 -5 -2 -10 -4 -10 -3 0 -8 5 -11 10
-3 6 -1 10 4 10 6 0 11 -4 11 -10z m30 -30 c0 -5 -7 -10 -16 -10 -8 0 -12 5
-9 10 3 6 10 10 16 10 5 0 9 -4 9 -10z m-140 -24 c-17 -16 -156 -90 -185 -98
-11 -3 -37 -13 -57 -22 -33 -14 -37 -14 -31 -1 3 9 8 14 11 11 2 -3 24 6 48
20 24 14 44 23 44 21 0 -3 24 10 52 29 47 31 68 39 91 35 4 0 7 4 7 9 0 6 8
10 17 10 15 0 15 -2 3 -14z m40 -36 c0 -5 -8 -10 -17 -10 -15 0 -16 2 -3 10
19 12 20 12 20 0z m1390 -10 c1 9 5 6 10 -7 5 -13 18 -23 29 -23 14 0 19 -5
15 -15 -4 -11 1 -15 17 -16 17 -1 19 -3 7 -6 -10 -2 -21 -15 -24 -29 -3 -13
-10 -21 -16 -18 -14 9 -38 -16 -39 -40 0 -15 -4 -10 -16 17 -8 20 -19 37 -24
37 -5 0 -9 7 -9 15 0 8 -8 15 -17 16 -14 0 -12 3 5 10 13 5 20 13 17 19 -3 5
1 10 9 10 10 0 16 9 16 23 0 18 2 19 10 7 9 -13 10 -13 10 0z m-1720 -94 c0
-2 -7 -9 -15 -16 -12 -10 -15 -10 -15 4 0 9 7 16 15 16 8 0 15 -2 15 -4z m-45
-26 c-3 -5 -11 -10 -16 -10 -6 0 -7 5 -4 10 3 6 11 10 16 10 6 0 7 -4 4 -10z
m-41 -25 c-4 -8 -11 -12 -16 -9 -6 4 -5 10 3 15 19 12 19 11 13 -6z m-344
-199 c0 -2 -7 -7 -16 -10 -8 -3 -12 -2 -9 4 6 10 25 14 25 6z m-95 -36 c10
-16 -16 -43 -28 -31 -11 11 -2 41 12 41 5 0 13 -5 16 -10z m3180 -102 c3 -7
-1 -4 -9 6 -9 11 -16 29 -15 40 1 17 2 16 9 -6 4 -14 11 -32 15 -40z m-3270
42 c-3 -5 -12 -10 -18 -10 -7 0 -6 4 3 10 19 12 23 12 15 0z m3372 -91 c-1
-11 -7 -19 -13 -19 -16 0 -55 50 -49 60 3 5 1 11 -5 15 -5 3 -10 14 -10 23 0
11 12 5 39 -22 22 -21 39 -47 38 -57z m-72 11 c10 -11 16 -20 13 -20 -3 0 -13
9 -23 20 -10 11 -16 20 -13 20 3 0 13 -9 23 -20z m-3069 -27 c-11 -11 -17 4
-9 23 7 18 8 18 11 1 2 -10 1 -21 -2 -24z m-416 7 c0 -5 -2 -10 -4 -10 -3 0
-8 5 -11 10 -3 6 -1 10 4 10 6 0 11 -4 11 -10z m340 -30 c0 -5 -5 -10 -11 -10
-5 0 -7 5 -4 10 3 6 8 10 11 10 2 0 4 -4 4 -10z m130 -26 c0 -8 -19 -13 -24
-6 -3 5 1 9 9 9 8 0 15 -2 15 -3z m-30 -19 c0 -12 -19 -12 -23 0 -4 9 -1 12 9
8 7 -3 14 -7 14 -8z m-37 -43 c-13 -2 -23 -8 -23 -13 0 -6 4 -7 10 -4 6 3 7
-1 4 -9 -7 -18 -34 -22 -34 -5 0 8 -4 8 -12 2 -16 -11 -58 -15 -58 -4 0 4 11
8 25 9 56 4 60 6 57 33 -1 3 11 3 26 0 25 -5 25 -6 5 -9z m77 8 c0 -5 -5 -10
-11 -10 -5 0 -7 5 -4 10 3 6 8 10 11 10 2 0 4 -4 4 -10z m-40 -25 c-7 -9 -15
-13 -17 -11 -7 7 7 26 19 26 6 0 6 -6 -2 -15z m-500 1 c0 -3 -4 -8 -10 -11 -5
-3 -10 -1 -10 4 0 6 5 11 10 11 6 0 10 -2 10 -4z m-130 -20 c0 -3 -4 -8 -10
-11 -5 -3 -10 -1 -10 4 0 6 5 11 10 11 6 0 10 -2 10 -4z m97 -11 c0 -8 -4 -12
-9 -9 -4 3 -8 0 -8 -5 0 -6 5 -11 10 -11 6 0 10 -5 10 -11 0 -6 -9 -8 -21 -4
-12 4 -19 3 -16 -2 7 -12 -71 -88 -80 -79 -4 4 -1 11 7 16 8 6 11 10 6 10 -6
0 -5 5 1 11 6 6 9 17 6 24 -2 7 5 16 16 20 12 3 21 10 21 15 0 7 25 25 56 40
0 0 1 -7 1 -15z m367 -8 c-3 -8 5 -18 18 -25 l23 -11 -22 0 c-13 -1 -23 3 -23
8 0 13 -33 7 -38 -7 -2 -6 -9 -9 -17 -6 -10 4 -9 10 6 25 11 11 24 17 29 14 6
-4 10 -1 10 4 0 6 4 11 10 11 5 0 7 -6 4 -13z m-574 -46 c0 -5 -7 -12 -16 -15
-14 -5 -15 -4 -4 9 14 17 20 19 20 6z m437 -23 c-3 -8 -6 -5 -6 6 -1 11 2 17
5 13 3 -3 4 -12 1 -19z m-47 8 c0 -2 -9 -6 -20 -9 -11 -3 -18 -1 -14 4 5 9 34
13 34 5z m5384 -53 c-14 -10 -21 -10 -32 -1 -9 8 -10 14 -3 16 6 2 11 11 11
19 0 14 3 13 21 -3 19 -17 19 -19 3 -31z m-5397 18 c0 -11 -7 -17 -14 -14 -9
4 -9 8 0 19 16 17 16 17 14 -5z m-294 -44 c-9 -16 -24 9 -17 28 7 18 8 18 14
-1 4 -10 5 -23 3 -27z m267 14 c0 -5 -7 -12 -16 -15 -24 -9 -28 -7 -14 9 14
17 30 20 30 6z m-86 -10 c3 -5 -3 -11 -13 -14 -14 -3 -18 -1 -14 9 6 16 19 18
27 5z m-204 -9 c0 -10 -59 -62 -71 -62 -5 0 -9 5 -9 10 0 6 5 10 11 10 6 0 20
11 31 25 19 24 38 33 38 17z m196 -44 c-3 -13 -5 -26 -5 -29 -1 -4 -9 -6 -18
-5 -10 0 -18 -6 -18 -14 0 -8 -9 -16 -20 -17 -19 -3 -19 -3 -1 5 18 8 18 9 3
15 -9 3 -17 12 -16 19 0 10 2 10 6 1 2 -7 9 -13 15 -13 6 0 8 6 5 14 -7 17 18
40 33 31 5 -3 10 -1 10 4 0 6 2 11 5 11 3 0 3 -10 1 -22z m-196 -78 c0 -5 -5
-10 -11 -10 -5 0 -7 5 -4 10 3 6 8 10 11 10 2 0 4 -4 4 -10z m-50 -30 c-35
-24 -54 -31 -30 -11 14 11 30 21 35 21 6 0 3 -5 -5 -10z m80 1 c0 -5 -9 -13
-20 -16 -11 -3 -20 -11 -20 -16 0 -5 -6 -9 -12 -9 -7 0 -1 11 12 24 27 26 40
32 40 17z m4102 -33 c-7 -7 -12 -8 -12 -2 0 14 12 26 19 19 2 -3 -1 -11 -7
-17z m-4258 -14 c13 -5 14 -9 5 -20 -9 -11 -15 -11 -25 -3 -8 6 -11 15 -8 20
6 11 8 11 28 3z m86 -4 c0 -5 0 -13 0 -17 0 -5 -5 -8 -10 -8 -6 0 -15 -7 -21
-15 -8 -11 -9 -9 -4 9 6 20 4 23 -9 18 -11 -4 -15 -3 -11 4 4 6 13 8 21 5 8
-3 14 -1 14 4 0 6 5 10 10 10 6 0 10 -4 10 -10z m-115 -40 c-3 -5 -11 -10 -16
-10 -6 0 -7 5 -4 10 3 6 11 10 16 10 6 0 7 -4 4 -10z m-63 -48 c-2 -7 -1 -12
4 -10 5 2 10 -1 11 -7 2 -5 -3 -10 -10 -10 -6 0 -23 -8 -37 -17 -14 -9 -59
-31 -100 -49 -41 -17 -79 -35 -85 -39 -23 -17 -254 -89 -307 -96 -31 -4 -37
-2 -32 11 4 10 0 15 -12 16 -21 1 122 48 146 49 8 0 28 7 44 15 15 8 34 15 41
15 7 0 24 9 38 20 42 33 207 111 219 104 6 -4 8 -3 5 3 -7 10 20 28 36 25 4
-1 7 3 7 8 0 6 8 2 18 -7 10 -10 17 -24 14 -31z m-164 -160 c3 -16 -2 -22 -17
-22 -26 0 -36 17 -20 36 16 19 33 13 37 -14z m2504 -64 c-12 -18 -22 -27 -22
-19 0 8 -7 22 -15 31 -13 14 -13 19 1 39 l16 23 21 -20 20 -20 -21 -34z
m-5194 45 c5 -18 -28 -29 -38 -12 -5 7 -6 17 -3 22 7 12 35 5 41 -10z m6742
-7 c0 -6 -9 -22 -19 -34 -16 -22 -19 -23 -34 -7 -17 16 -22 37 -12 47 10 9 65
4 65 -6z m-4460 -38 c0 -7 -17 -8 -45 -5 -25 4 -45 3 -45 -1 0 -4 -4 -13 -9
-21 -8 -12 -12 -11 -27 4 -17 17 -17 17 4 11 16 -5 22 -4 20 6 -2 9 9 13 39
12 24 -1 40 2 37 7 -3 5 2 6 10 3 9 -3 16 -11 16 -16z m1580 -32 c-8 -5 -18
-13 -21 -18 -3 -6 -9 -3 -12 6 -4 9 -14 16 -24 17 -14 0 -13 2 5 9 12 5 22 16
22 24 0 11 6 10 23 -7 19 -19 20 -23 7 -31z m2947 2 c-3 -7 -5 -2 -5 12 0 14
2 19 5 13 2 -7 2 -19 0 -25z m1258 -63 c6 -43 9 -47 20 -32 17 23 28 22 15 -2
-14 -27 -13 -31 5 -25 11 5 13 2 9 -9 -6 -17 8 -22 71 -30 26 -4 25 -4 -8 -6
-23 0 -40 -7 -43 -16 -4 -8 -13 -15 -21 -15 -10 0 -12 -6 -8 -20 5 -15 3 -18
-9 -14 -11 4 -16 1 -16 -10 0 -9 -4 -16 -10 -16 -5 0 -10 -15 -10 -32 0 -25
-3 -29 -10 -18 -5 8 -10 25 -10 37 0 17 -4 21 -16 16 -14 -5 -16 -1 -12 24 4
29 3 31 -20 22 -18 -7 -23 -6 -20 3 6 16 -16 38 -37 38 -9 0 -13 5 -10 10 3 6
19 10 35 10 22 0 29 6 34 26 6 21 9 24 21 14 12 -10 15 -9 15 8 0 12 5 24 10
27 6 3 10 23 11 43 1 44 5 34 14 -33z m-6001 40 c-10 -8 -23 -15 -28 -15 -6 0
-1 7 10 15 10 8 23 15 28 15 6 0 1 -7 -10 -15z m2790 -115 c3 -58 9 -150 11
-205 9 -160 13 -181 35 -182 11 -1 22 7 25 18 10 29 24 23 22 -10 -1 -16 -5
-27 -8 -25 -4 2 -9 -2 -12 -10 -6 -15 19 -31 42 -27 13 2 13 0 2 -13 -12 -14
-11 -16 3 -10 11 4 16 2 14 -6 -2 -7 3 -15 11 -18 9 -3 11 0 6 9 -5 8 -5 11 0
7 4 -4 21 0 37 8 23 12 28 12 22 2 -14 -21 -15 -48 -2 -48 6 0 3 -7 -8 -15
-29 -22 -2 -35 74 -35 80 0 81 -16 1 -22 -42 -3 -66 -10 -74 -21 -7 -9 -15
-14 -19 -10 -9 10 -35 -29 -29 -44 4 -9 -2 -12 -18 -11 -17 2 -23 -1 -21 -12
2 -8 5 -30 7 -48 3 -31 2 -32 -14 -18 -10 9 -21 13 -24 9 -4 -3 -7 -1 -7 5 0
21 -17 13 -24 -10 -5 -18 -8 -20 -15 -9 -10 15 -17 -20 -26 -134 -16 -196 -28
-200 -35 -14 -4 99 -9 132 -20 139 -8 5 -17 7 -22 4 -4 -3 -16 1 -27 8 -17 10
-23 9 -42 -7 l-22 -20 17 33 c9 17 13 32 9 32 -5 0 -1 5 7 10 12 8 11 11 -8
16 -14 4 -21 12 -18 20 3 8 0 11 -10 7 -7 -3 -14 0 -14 6 0 6 -7 11 -15 11 -8
0 -15 9 -15 20 0 28 -29 37 -135 47 l-90 7 122 6 c68 4 125 8 127 11 2 2 6 14
10 25 5 18 1 22 -24 27 -27 6 -44 27 -20 27 5 0 7 8 4 18 -3 10 0 8 7 -4 13
-26 56 -49 56 -30 0 6 3 23 6 37 5 19 -2 39 -24 75 l-30 49 38 -43 c28 -32 43
-42 55 -37 10 4 16 10 14 14 -2 3 7 11 20 18 18 8 23 8 18 0 -3 -7 2 -3 10 7
12 15 16 44 16 120 0 102 11 358 15 354 2 -2 5 -50 9 -108z m4055 53 c-8 -9
-16 -10 -22 -4 -13 13 0 31 19 24 11 -4 12 -8 3 -20z m-9482 -9 c-9 -9 -28 6
-21 18 4 6 10 6 17 -1 6 -6 8 -13 4 -17z m1268 6 c3 -5 1 -10 -4 -10 -6 0 -11
5 -11 10 0 6 2 10 4 10 3 0 8 -4 11 -10z m610 -150 c3 -5 1 -10 -4 -10 -6 0
-11 5 -11 10 0 6 2 10 4 10 3 0 8 -4 11 -10z m-1532 -36 c-3 -8 -9 -14 -13
-14 -14 0 -22 20 -16 37 5 12 9 13 21 3 7 -6 11 -18 8 -26z m567 6 c0 -5 -2
-10 -4 -10 -3 0 -8 5 -11 10 -3 6 -1 10 4 10 6 0 11 -4 11 -10z m-110 -64 c0
-3 -4 -8 -10 -11 -5 -3 -10 -1 -10 4 0 6 5 11 10 11 6 0 10 -2 10 -4z m1950
-30 c0 -3 -4 -8 -10 -11 -5 -3 -10 -1 -10 4 0 6 5 11 10 11 6 0 10 -2 10 -4z
m-1700 -20 c0 -11 -19 -15 -25 -6 -3 5 1 10 9 10 9 0 16 -2 16 -4z m310 -26
c0 -5 -4 -10 -10 -10 -5 0 -10 5 -10 10 0 6 5 10 10 10 6 0 10 -4 10 -10z
m-560 -10 c0 -5 -4 -10 -10 -10 -5 0 -10 5 -10 10 0 6 5 10 10 10 6 0 10 -4
10 -10z m5942 -37 c6 -12 7 -34 4 -49 -11 -41 -117 -145 -261 -254 -71 -55
-158 -125 -193 -157 l-63 -58 16 -39 c13 -31 14 -44 4 -67 -12 -31 -24 -37
-32 -16 -3 6 -6 -1 -6 -16 -1 -15 -9 -42 -18 -60 -15 -28 -18 -29 -21 -12 -4
16 -7 13 -16 -14 -12 -37 -36 -54 -36 -26 0 9 -5 13 -10 10 -6 -4 -8 -16 -4
-27 6 -19 3 -20 -32 -13 -56 10 -70 20 -93 68 -29 59 -27 74 19 159 22 40 58
109 79 153 21 44 46 89 55 100 16 20 16 19 51 -17 19 -21 35 -46 35 -57 0 -23
24 -44 55 -47 34 -4 39 10 18 43 l-18 28 28 -18 c28 -18 28 -18 18 0 -13 25
22 51 44 33 10 -8 15 -8 21 1 4 7 3 9 -4 5 -23 -14 -22 15 2 39 15 14 26 29
26 33 1 4 29 27 64 51 63 45 63 45 42 63 l-21 18 27 -6 c37 -8 92 24 76 44
-10 11 -8 13 8 10 14 -2 20 3 22 20 3 16 8 22 18 18 9 -3 14 -1 12 7 -4 16 66
100 70 84 2 -7 8 -22 14 -34z m-5832 -3 c0 -5 -2 -10 -4 -10 -3 0 -8 5 -11 10
-3 6 -1 10 4 10 6 0 11 -4 11 -10z m-180 -50 c0 -5 -4 -10 -10 -10 -5 0 -10 5
-10 10 0 6 5 10 10 10 6 0 10 -4 10 -10z m-110 -10 c0 -5 -4 -10 -10 -10 -5 0
-10 5 -10 10 0 6 5 10 10 10 6 0 10 -4 10 -10z m6758 -40 c-14 -22 -24 -19
-15 5 4 8 11 15 17 15 6 0 6 -7 -2 -20z m2267 0 c-3 -5 -11 -10 -16 -10 -6 0
-7 5 -4 10 3 6 11 10 16 10 6 0 7 -4 4 -10z m-6154 -45 c5 4 9 -1 9 -9 0 -9 8
-16 18 -17 10 0 12 -3 5 -6 -7 -2 -13 -11 -13 -19 0 -8 -4 -14 -10 -14 -5 0
-11 -8 -11 -17 -1 -17 -2 -17 -6 0 -2 9 -9 15 -14 12 -5 -4 -9 1 -9 10 0 8
-10 20 -22 25 -19 7 -20 9 -5 9 11 1 23 13 30 32 10 27 12 29 15 10 2 -12 8
-19 13 -16z m-3322 5 c-6 -5 -18 -6 -26 -3 -19 8 -16 11 13 11 17 0 22 -3 13
-8z m7189 -30 c-6 -23 -13 -39 -15 -36 -7 7 8 76 17 76 4 0 3 -18 -2 -40z
m2350 15 c-3 -3 -9 2 -12 12 -6 14 -5 15 5 6 7 -7 10 -15 7 -18z m-9596 -7
c-6 -6 -15 -8 -19 -4 -4 4 -1 11 7 16 19 12 27 3 12 -12z m7215 6 c-3 -3 -12
-4 -19 -1 -8 3 -5 6 6 6 11 1 17 -2 13 -5z m-7254 -19 c0 -6 -7 -11 -16 -13
-12 -3 -15 1 -11 13 7 17 25 17 27 0z m-53 -36 c0 -4 -9 -9 -20 -12 -20 -5
-28 7 -10 18 5 3 6 13 3 23 -4 13 -2 13 10 -3 9 -11 17 -23 17 -26z m7313 -67
l-8 -51 -23 26 c-21 24 -22 25 -3 20 17 -4 22 1 27 29 10 53 15 34 7 -24z
m-6783 20 c0 -13 -12 -22 -22 -16 -10 6 -1 24 13 24 5 0 9 -4 9 -8z m-70 -16
c0 -3 -4 -8 -10 -11 -5 -3 -10 -1 -10 4 0 6 5 11 10 11 6 0 10 -2 10 -4z
m-762 -18 c-6 -18 -28 -21 -28 -4 0 9 7 16 16 16 9 0 14 -5 12 -12z m227 3 c6
-11 -12 -24 -39 -28 -19 -3 -19 -3 -1 17 20 22 31 25 40 11z m7493 -28 c-10
-2 -26 -2 -35 0 -10 3 -2 5 17 5 19 0 27 -2 18 -5z m872 -14 c0 -6 7 -9 15 -6
8 4 17 2 20 -2 2 -5 -6 -73 -20 -152 -14 -79 -25 -147 -25 -150 0 -3 -24 6
-54 20 -59 28 -73 52 -56 96 5 14 10 42 10 61 l0 34 58 1 c59 0 58 2 -17 30
-31 12 -32 13 -12 20 24 9 27 24 9 36 -9 5 -3 10 17 14 46 10 55 10 55 -2z
m-8462 -26 c-4 -34 -19 -39 -36 -12 -12 18 -12 23 0 30 26 17 39 10 36 -18z
m9752 15 c0 -4 -4 -8 -8 -8 -5 0 -15 -11 -22 -25 -7 -14 -18 -25 -23 -25 -6 0
-3 8 6 18 20 22 22 36 5 26 -10 -6 -10 -5 -1 7 13 17 43 21 43 7z m-9175 -8
c3 -5 1 -10 -4 -10 -6 0 -11 5 -11 10 0 6 2 10 4 10 3 0 8 -4 11 -10z m-645
-34 c0 -21 -21 -31 -30 -15 -5 7 -6 17 -4 21 9 14 34 9 34 -6z m9756 -46 c0
-10 -2 -17 -5 -15 -2 3 -13 -3 -24 -12 -17 -15 -16 -12 3 15 13 17 24 32 25
32 0 0 1 -9 1 -20z m147 -39 c-44 -32 -84 -64 -87 -70 -4 -6 -12 -11 -18 -11
-18 0 48 61 111 102 87 59 84 45 -6 -21z m-8133 38 c0 -4 -4 -11 -10 -14 -5
-3 -10 -1 -10 5 0 6 -5 8 -12 4 -6 -4 -8 -3 -5 3 7 11 37 13 37 2z m6247 -26
c-3 -10 -5 -4 -5 12 0 17 2 24 5 18 2 -7 2 -21 0 -30z m-465 -18 c2 -19 0 -35
-4 -35 -4 0 -8 16 -8 35 0 19 2 35 4 35 2 0 6 -16 8 -35z m-7826 -2 c-10 -10
-19 5 -10 18 6 11 8 11 12 0 2 -7 1 -15 -2 -18z m-31 -3 c3 -5 1 -10 -4 -10
-6 0 -11 5 -11 10 0 6 2 10 4 10 3 0 8 -4 11 -10z m338 -10 c-3 -11 -9 -20
-14 -20 -11 0 -11 3 -3 24 9 23 23 20 17 -4z m9487 14 c0 -8 -19 -13 -24 -6
-3 5 1 9 9 9 8 0 15 -2 15 -3z m990 -46 c-9 -29 -22 -54 -30 -56 -7 -3 -11 0
-9 5 30 72 45 103 50 103 3 0 -1 -23 -11 -52z m-10060 28 c0 -3 -4 -8 -10 -11
-5 -3 -10 -1 -10 4 0 6 5 11 10 11 6 0 10 -2 10 -4z m2721 -29 c-13 -13 -26
-3 -16 12 3 6 11 8 17 5 6 -4 6 -10 -1 -17z m6769 9 c0 -2 -8 -10 -17 -17 -16
-13 -17 -12 -4 4 13 16 21 21 21 13z m-7030 -16 c0 -5 -2 -10 -4 -10 -3 0 -8
5 -11 10 -3 6 -1 10 4 10 6 0 11 -4 11 -10z m4647 -42 c-2 -13 -4 -5 -4 17 -1
22 1 32 4 23 2 -10 2 -28 0 -40z m2308 -3 c-22 -19 -43 -34 -47 -35 -3 0 -32
-21 -65 -47 -84 -68 -88 -70 -79 -55 14 23 210 172 226 172 3 0 -13 -16 -35
-35z m-10255 15 c0 -5 -2 -10 -4 -10 -3 0 -8 5 -11 10 -3 6 -1 10 4 10 6 0 11
-4 11 -10z m10970 6 c0 -3 -4 -8 -10 -11 -5 -3 -10 -1 -10 4 0 6 5 11 10 11 6
0 10 -2 10 -4z m-3010 -56 c0 -5 -5 -10 -11 -10 -5 0 -7 5 -4 10 3 6 8 10 11
10 2 0 4 -4 4 -10z m1847 -22 c-3 -7 -5 -2 -5 12 0 14 2 19 5 13 2 -7 2 -19 0
-25z m1130 10 c-3 -8 -6 -5 -6 6 -1 11 2 17 5 13 3 -3 4 -12 1 -19z m-8163 -3
c-4 -8 -8 -15 -10 -15 -2 0 -4 7 -4 15 0 8 4 15 10 15 5 0 7 -7 4 -15z m114
-3 c2 -7 -6 -12 -17 -12 -21 0 -27 11 -14 24 9 9 26 2 31 -12z m6859 -34 c-3
-8 -6 -5 -6 6 -1 11 2 17 5 13 3 -3 4 -12 1 -19z m1179 -5 c-10 -10 -19 5 -10
18 6 11 8 11 12 0 2 -7 1 -15 -2 -18z m-2041 -1 c7 -4 9 -58 5 -157 -6 -157
-15 -190 -59 -228 -21 -17 -21 -17 -16 10 5 27 5 27 -12 -4 -9 -18 -23 -33
-30 -33 -18 0 -16 9 6 46 11 18 18 45 16 65 -1 19 1 39 5 44 4 6 4 48 1 93 -5
59 -3 93 6 114 12 27 16 30 46 24 l32 -6 -24 20 c-20 18 -21 20 -5 20 11 0 24
-4 29 -8z m-6120 -42 c6 -10 -12 -51 -28 -61 -10 -7 -67 9 -67 18 0 3 12 16
28 29 28 25 57 31 67 14z m-1588 -11 c15 -15 4 -49 -17 -49 -23 0 -44 26 -36
45 6 17 37 20 53 4z m9380 -11 c-3 -8 -6 -5 -6 6 -1 11 2 17 5 13 3 -3 4 -12
1 -19z m-8327 -14 c0 -8 -5 -12 -10 -9 -6 4 -8 11 -5 16 9 14 15 11 15 -7z
m-2080 -14 c0 -5 -4 -10 -10 -10 -5 0 -10 5 -10 10 0 6 5 10 10 10 6 0 10 -4
10 -10z m10394 -5 c-4 -8 -8 -15 -10 -15 -2 0 -4 7 -4 15 0 8 4 15 10 15 5 0
7 -7 4 -15z m-4644 -15 c0 -5 -4 -10 -9 -10 -6 0 -13 5 -16 10 -3 6 1 10 9 10
9 0 16 -4 16 -10z m-3819 -45 c14 5 17 3 13 -9 -5 -12 1 -16 22 -17 29 -1 29
-1 4 -8 -18 -5 -26 -15 -28 -35 -3 -21 -6 -25 -16 -16 -11 8 -15 3 -21 -22 -6
-26 -9 -29 -12 -13 -8 34 -33 83 -46 89 -7 3 -3 7 10 11 14 5 20 12 16 23 -4
9 -2 13 4 9 6 -4 14 3 18 16 7 21 8 21 12 -6 4 -22 8 -27 24 -22z m7686 13
c-3 -8 -6 -5 -6 6 -1 11 2 17 5 13 3 -3 4 -12 1 -19z m-9897 -8 c0 -5 -5 -10
-11 -10 -5 0 -7 5 -4 10 3 6 8 10 11 10 2 0 4 -4 4 -10z m160 0 c0 -5 -10 -15
-22 -21 -23 -12 -23 -12 -4 10 21 23 26 26 26 11z m40 0 c0 -5 -7 -10 -16 -10
-8 0 -12 5 -9 10 3 6 10 10 16 10 5 0 9 -4 9 -10z m7947 4 c-3 -3 -12 -4 -19
-1 -8 3 -5 6 6 6 11 1 17 -2 13 -5z m-6992 -94 c-5 -8 -11 -8 -17 -2 -6 6 -7
16 -3 22 5 8 11 8 17 2 6 -6 7 -16 3 -22z m1320 12 c-3 -3 -11 0 -18 7 -9 10
-8 11 6 5 10 -3 15 -9 12 -12z m105 4 c0 -11 -19 -15 -25 -6 -3 5 1 10 9 10 9
0 16 -2 16 -4z m538 -27 c-2 -6 -8 -10 -13 -10 -5 0 -11 4 -13 10 -2 6 4 11
13 11 9 0 15 -5 13 -11z m-445 -94 c-5 -15 -56 -12 -61 3 -2 7 5 16 17 19 12
3 21 13 21 22 0 10 5 8 13 -9 8 -14 12 -30 10 -35z m137 24 c0 -5 -4 -9 -8 -9
-5 0 -9 7 -9 15 0 8 4 12 9 9 4 -3 8 -9 8 -15z m261 3 c11 -13 13 -25 7 -41
-12 -34 -36 -11 -30 29 2 16 5 30 6 30 1 0 9 -8 17 -18z m-2227 -8 c22 -9 20
-24 -3 -24 -21 0 -34 13 -24 24 8 7 8 7 27 0z m7962 -41 c-8 -15 -15 -22 -16
-15 0 17 20 55 27 49 2 -3 -2 -18 -11 -34z m30 -8 c-6 -20 -17 -35 -26 -34
-10 0 -11 2 -3 6 7 2 15 20 19 39 3 18 10 32 14 29 4 -2 2 -20 -4 -40z m-6441
25 c3 -5 1 -10 -4 -10 -6 0 -11 5 -11 10 0 6 2 10 4 10 3 0 8 -4 11 -10z m410
0 c3 -5 -1 -10 -10 -10 -9 0 -13 5 -10 10 3 6 8 10 10 10 2 0 7 -4 10 -10z
m6069 -35 c-9 -14 -19 -23 -22 -20 -3 3 2 13 11 23 10 10 17 25 18 33 0 9 2
10 5 2 3 -6 -2 -23 -12 -38z m-5570 23 c-3 -4 -9 -8 -15 -8 -5 0 -9 4 -9 8 0
5 7 9 15 9 8 0 12 -4 9 -9z m-825 -7 c11 -7 10 -11 -7 -20 -15 -8 -23 -7 -31
3 -9 11 -9 15 1 19 19 8 22 8 37 -2z m3547 -19 c9 -14 8 -22 -1 -36 -13 -17
-14 -17 -32 1 -16 16 -16 20 -3 35 20 21 23 21 36 0z m4424 14 c0 -2 -7 -7
-16 -10 -8 -3 -12 -2 -9 4 6 10 25 14 25 6z m-7125 -27 c-3 -4 -12 -6 -20 -3
-8 4 -13 10 -10 15 3 4 12 6 20 3 8 -4 13 -10 10 -15z m7463 -20 c-3 -8 -7 -3
-11 10 -4 17 -3 21 5 13 5 -5 8 -16 6 -23z m-3159 -53 c-52 -29 -131 -73 -175
-98 -45 -25 -130 -69 -190 -97 -102 -49 -184 -110 -184 -137 0 -6 38 -61 85
-120 68 -86 102 -144 166 -274 161 -334 192 -387 315 -545 60 -78 114 -173
114 -202 0 -30 -147 -168 -226 -211 l-70 -38 2 40 c2 35 8 45 45 74 24 19 67
45 94 57 48 23 95 57 95 69 0 3 -9 1 -20 -6 -10 -7 -21 -10 -23 -8 -11 15 -77
163 -77 173 0 7 14 20 31 30 18 10 29 20 26 23 -3 3 -24 -7 -47 -22 -41 -27
-42 -29 -36 -71 16 -112 15 -133 -3 -53 -10 47 -28 101 -39 120 -11 19 -25 52
-32 72 -6 21 -21 44 -32 52 -11 8 -18 18 -15 23 3 5 2 15 -3 23 -7 11 -13 11
-34 -3 -33 -22 -43 -22 -23 1 14 16 9 26 -64 142 -44 69 -83 132 -87 140 -19
41 -122 208 -136 220 -20 16 -20 15 -45 -40 -28 -60 -26 -42 4 55 16 53 23 91
19 113 l-7 33 -32 -31 -32 -31 -8 38 c-5 21 -10 45 -13 53 -2 8 -4 29 -4 46 0
28 -4 33 -30 38 -17 3 -41 6 -55 6 -23 0 -23 -2 -19 -52 4 -42 4 -46 -3 -18
-16 69 -21 95 -16 84 4 -8 23 -8 62 -2 74 12 79 16 51 45 l-23 25 28 -7 c15
-4 27 -3 26 1 -4 23 4 31 46 43 25 7 45 16 45 20 0 13 69 43 84 38 9 -4 16 -3
16 2 0 5 12 12 26 15 41 11 104 54 98 69 -4 10 9 13 55 12 33 -1 58 2 56 6 -3
3 25 22 60 40 42 21 64 38 60 46 -3 10 0 11 15 3 12 -6 27 -7 37 -2 10 5 36
18 58 29 28 14 45 17 59 10 15 -7 3 -17 -75 -61z m-6556 -1 c-7 -19 -33 -20
-33 -1 0 15 20 26 32 19 4 -2 5 -10 1 -18z m-300 -14 c3 -12 -1 -22 -11 -26
-20 -7 -36 9 -29 29 9 22 34 20 40 -3z m1101 -27 c18 -7 12 -24 -10 -24 -8 0
-14 7 -14 15 0 17 2 18 24 9z m-444 -219 c0 -8 -7 -15 -15 -15 -16 0 -20 12
-8 23 11 12 23 8 23 -8z m-235 -95 c3 -5 -1 -10 -9 -10 -9 0 -16 5 -16 10 0 6
4 10 9 10 6 0 13 -4 16 -10z m-155 -10 c0 -5 -4 -10 -10 -10 -5 0 -10 5 -10
10 0 6 5 10 10 10 6 0 10 -4 10 -10z m131 -51 c7 -15 6 -21 -5 -25 -20 -8 -50
22 -42 41 7 18 33 9 47 -16z m-181 -5 c0 -16 -16 -19 -25 -4 -8 13 4 32 16 25
5 -4 9 -13 9 -21z m250 6 c0 -5 -4 -10 -10 -10 -5 0 -10 5 -10 10 0 6 5 10 10
10 6 0 10 -4 10 -10z m-583 -32 c-3 -8 -6 -5 -6 6 -1 11 2 17 5 13 3 -3 4 -12
1 -19z m6210 -50 c-3 -7 -5 -2 -5 12 0 14 2 19 5 13 2 -7 2 -19 0 -25z m-6267
2 c0 -5 -2 -10 -4 -10 -3 0 -8 5 -11 10 -3 6 -1 10 4 10 6 0 11 -4 11 -10z
m380 -34 c0 -8 -4 -17 -9 -21 -12 -7 -24 12 -16 25 9 15 25 12 25 -4z m5820
-27 c-7 -11 -14 -18 -17 -15 -3 3 0 12 7 21 18 21 23 19 10 -6z m55 -12 c-9
-33 -62 -87 -86 -87 -11 0 -19 -4 -19 -9 0 -11 58 -61 71 -61 6 0 7 -5 3 -11
-3 -6 0 -15 7 -20 8 -4 14 -12 15 -16 0 -4 50 -58 110 -118 60 -61 147 -157
192 -213 67 -83 79 -102 62 -102 -11 0 -20 4 -20 9 0 10 -307 357 -359 405
-17 17 -31 35 -31 42 0 6 -22 31 -48 56 l-48 45 43 11 c24 7 43 17 43 23 0 5
4 8 9 4 12 -7 51 42 51 63 0 8 2 13 5 10 4 -3 3 -17 0 -31z m-5555 -46 c0 -5
-7 -12 -16 -15 -22 -9 -24 -8 -24 9 0 8 9 15 20 15 11 0 20 -4 20 -9z m-393
-20 c10 -16 9 -20 -4 -25 -19 -8 -34 11 -26 31 7 18 16 16 30 -6z m8778 -1 c3
-5 1 -10 -4 -10 -6 0 -11 5 -11 10 0 6 2 10 4 10 3 0 8 -4 11 -10z m-8335 -40
c0 -5 -4 -10 -10 -10 -5 0 -10 5 -10 10 0 6 5 10 10 10 6 0 10 -4 10 -10z
m-510 -10 c0 -5 -5 -10 -11 -10 -5 0 -7 5 -4 10 3 6 8 10 11 10 2 0 4 -4 4
-10z m6171 -53 c-10 -9 -11 -8 -5 6 3 10 9 15 12 12 3 -3 0 -11 -7 -18z
m-5871 -7 c0 -5 -4 -10 -10 -10 -5 0 -10 5 -10 10 0 6 5 10 10 10 6 0 10 -4
10 -10z m-328 -82 c-15 -15 -26 -4 -18 18 5 13 9 15 18 6 9 -9 9 -15 0 -24z
m383 -48 c3 -5 -1 -10 -10 -10 -9 0 -13 5 -10 10 3 6 8 10 10 10 2 0 7 -4 10
-10z m-482 -37 c18 -10 -15 -43 -43 -43 -34 0 -36 6 -15 37 14 20 28 22 58 6z
m527 -3 c0 -5 -8 -10 -17 -10 -15 0 -16 2 -3 10 19 12 20 12 20 0z m-100 -10
c0 -5 -5 -10 -11 -10 -5 0 -7 5 -4 10 3 6 8 10 11 10 2 0 4 -4 4 -10z m1740
-346 c0 -21 4 -25 19 -21 14 3 18 1 14 -9 -4 -10 4 -14 28 -15 32 -2 32 -2 6
-6 -20 -3 -27 -9 -23 -19 3 -9 1 -12 -4 -9 -6 3 -10 -1 -10 -9 0 -9 -7 -16
-15 -16 -9 0 -15 -10 -15 -26 0 -14 -4 -23 -10 -19 -5 3 -10 15 -10 25 0 10
-7 26 -16 34 -8 9 -12 20 -9 26 3 5 -4 11 -17 11 -20 1 -20 2 -4 6 28 7 46 28
46 52 0 12 5 21 10 21 6 0 10 -12 10 -26z m-1830 -94 c0 -5 -4 -10 -10 -10 -5
0 -10 5 -10 10 0 6 5 10 10 10 6 0 10 -4 10 -10z m-360 -90 c0 -5 -2 -10 -4
-10 -3 0 -8 5 -11 10 -3 6 -1 10 4 10 6 0 11 -4 11 -10z m6887 -72 c-3 -8 -6
-5 -6 6 -1 11 2 17 5 13 3 -3 4 -12 1 -19z m480 -42 c-5 -15 -24 -18 -24 -3 0
8 6 14 14 14 7 0 12 -5 10 -11z m-2117 -66 c0 -5 -5 -10 -11 -10 -5 0 -7 5 -4
10 3 6 8 10 11 10 2 0 4 -4 4 -10z m-1695 -30 c-3 -5 -16 -15 -28 -21 -19 -9
-19 -8 3 10 28 23 34 26 25 11z m1720 -12 c3 -3 -8 -8 -24 -10 -23 -3 -28 -2
-20 8 10 12 33 13 44 2z m-1828 -26 c-10 -10 -14 -22 -10 -25 3 -4 4 -7 0 -7
-15 0 -16 20 -1 34 22 22 31 20 11 -2z m3313 -26 c0 -2 -8 -10 -17 -17 -16
-13 -17 -12 -4 4 13 16 21 21 21 13z m-3367 -50 c-15 -19 -34 -35 -40 -35 -7
-1 -13 -9 -13 -18 -1 -19 -27 -59 -34 -52 -9 9 28 71 51 86 23 15 34 41 11 27
-7 -4 -8 -3 -4 4 4 6 13 9 20 6 8 -3 17 -1 21 5 3 6 9 11 12 11 3 0 -8 -15
-24 -34z m277 14 c-8 -5 -22 -9 -30 -9 -10 0 -8 3 5 9 27 12 43 12 25 0z
m1020 -24 c0 -3 -4 -8 -10 -11 -5 -3 -10 -1 -10 4 0 6 5 11 10 11 6 0 10 -2
10 -4z m530 0 c0 -2 -13 -6 -29 -8 -17 -2 -28 -1 -25 4 5 8 54 12 54 4z
m-1666 -34 c-16 -16 -44 -26 -44 -16 0 4 52 33 59 34 3 0 -4 -8 -15 -18z
m-2074 -66 c0 -2 -8 -10 -17 -17 -16 -13 -17 -12 -4 4 13 16 21 21 21 13z
m1810 -21 c-6 -8 -8 -20 -4 -26 4 -7 3 -9 -4 -5 -5 3 -12 1 -14 -6 -3 -8 -7
-8 -11 -2 -3 6 3 21 14 32 22 24 38 30 19 7z m180 -9 c0 -3 -13 -14 -30 -26
-16 -12 -30 -18 -30 -13 0 5 12 16 28 25 30 19 32 20 32 14z m4894 -22 c3 -8
2 -12 -4 -9 -6 3 -10 10 -10 16 0 14 7 11 14 -7z m-5009 -82 l-48 -47 43 53
c24 28 46 50 49 47 3 -3 -17 -27 -44 -53z m5055 23 c19 -19 32 -35 29 -35 -3
0 -20 16 -39 35 -19 19 -32 35 -29 35 3 0 20 -16 39 -35z m-5166 -1 c3 -8 2
-12 -4 -9 -6 3 -10 10 -10 16 0 14 7 11 14 -7z m1696 -8 c-7 -7 -14 -6 -21 1
-9 9 -7 12 9 10 14 -1 18 -5 12 -11z m55 -26 c3 -5 1 -10 -4 -10 -6 0 -11 5
-11 10 0 6 2 10 4 10 3 0 8 -4 11 -10z m85 -20 c0 -5 -2 -10 -4 -10 -3 0 -8 5
-11 10 -3 6 -1 10 4 10 6 0 11 -4 11 -10z m-5445 -99 c8 -14 -13 -24 -33 -16
-14 5 -14 7 -2 15 19 12 27 12 35 1z m3644 -118 c-3 -20 2 -34 11 -28 6 3 10
2 10 -3 0 -6 -6 -12 -14 -15 -14 -5 -29 36 -18 48 8 7 12 6 11 -2z m438 -122
c10 -16 9 -18 -7 -14 -10 3 -20 13 -23 23 -6 23 14 17 30 -9z m-2307 -30 c0
-13 -29 -35 -37 -27 -3 3 -1 6 5 6 7 0 11 3 11 8 -3 14 1 22 11 22 6 0 10 -4
10 -9z m2270 5 c0 -11 -19 -15 -25 -6 -3 5 1 10 9 10 9 0 16 -2 16 -4z m-2493
-28 c-3 -8 -6 -5 -6 6 -1 11 2 17 5 13 3 -3 4 -12 1 -19z m-240 -35 c-3 -10
-5 -4 -5 12 0 17 2 24 5 18 2 -7 2 -21 0 -30z m219 0 c-10 -10 -19 5 -10 18 6
11 8 11 12 0 2 -7 1 -15 -2 -18z m-195 -10 c-8 -15 -10 -15 -11 -2 0 17 10 32
18 25 2 -3 -1 -13 -7 -23z m1536 5 c-3 -8 -6 -5 -6 6 -1 11 2 17 5 13 3 -3 4
-12 1 -19z m-1780 -130 c-3 -7 -5 -2 -5 12 0 14 2 19 5 13 2 -7 2 -19 0 -25z
m10 -50 c-3 -8 -6 -5 -6 6 -1 11 2 17 5 13 3 -3 4 -12 1 -19z m56 -48 c3 -11
1 -18 -4 -14 -5 3 -9 12 -9 20 0 20 7 17 13 -6z m-46 -47 c-3 -10 -5 -2 -5 17
0 19 2 27 5 18 2 -10 2 -26 0 -35z m3740 -5 c-3 -8 -6 -5 -6 6 -1 11 2 17 5
13 3 -3 4 -12 1 -19z m17 -34 c3 -8 2 -12 -4 -9 -6 3 -10 10 -10 16 0 14 7 11
14 -7z m-3747 -46 c-2 -13 -4 -5 -4 17 -1 22 1 32 4 23 2 -10 2 -28 0 -40z
m450 24 c-10 -10 -14 -23 -10 -28 4 -5 1 -3 -7 4 -13 12 -13 15 4 28 27 19 32
18 13 -4z m3260 -14 c-3 -8 -6 -5 -6 6 -1 11 2 17 5 13 3 -3 4 -12 1 -19z m59
-31 c14 -30 14 -31 -1 -12 -25 30 -39 59 -26 51 6 -4 18 -22 27 -39z m-3989
-39 c-3 -7 -5 -2 -5 12 0 14 2 19 5 13 2 -7 2 -19 0 -25z m230 -40 c-2 -13 -4
-3 -4 22 0 25 2 35 4 23 2 -13 2 -33 0 -45z m1513 58 c0 -2 -7 -7 -16 -10 -8
-3 -12 -2 -9 4 6 10 25 14 25 6z m2177 -68 c-2 -13 -4 -5 -4 17 -1 22 1 32 4
23 2 -10 2 -28 0 -40z m114 35 c13 -16 12 -17 -3 -4 -17 13 -22 21 -14 21 2 0
10 -8 17 -17z m-3837 -129 c3 -8 2 -12 -4 -9 -6 3 -10 10 -10 16 0 14 7 11 14
-7z m736 -138 c0 -3 -4 -8 -10 -11 -5 -3 -10 -1 -10 4 0 6 5 11 10 11 6 0 10
-2 10 -4z m87 -15 c-1 -19 -27 -18 -27 1 0 5 5 6 10 3 6 -3 10 -1 10 4 0 6 2
11 4 11 3 0 4 -9 3 -19z m57 -16 c-4 -8 -10 -15 -15 -15 -4 0 -6 7 -3 15 4 8
10 15 15 15 4 0 6 -7 3 -15z m-950 -64 c-7 -7 -12 3 -19 34 l-6 30 14 -30 c8
-16 13 -32 11 -34z m8801 -69 c-3 -3 -11 0 -18 7 -9 10 -8 11 6 5 10 -3 15 -9
12 -12z m-110 -23 c19 -9 19 -9 -2 -5 -12 2 -24 -1 -26 -7 -3 -9 -10 -8 -28 1
-22 11 -22 12 -1 6 12 -3 22 -1 22 5 0 13 8 13 35 0z m-6476 -35 c14 -12 -19
-1 -35 12 -18 14 -18 14 6 3 14 -6 27 -13 29 -15z m52 -19 c19 -8 27 -14 19
-14 -14 0 -72 28 -59 29 4 0 22 -7 40 -15z m6256 -1 c-3 -3 -12 -4 -19 -1 -8
3 -5 6 6 6 11 1 17 -2 13 -5z m-9032 -24 c3 -5 1 -10 -4 -10 -6 0 -11 5 -11
10 0 6 2 10 4 10 3 0 8 -4 11 -10z m2850 0 c13 -6 15 -9 5 -9 -8 0 -22 4 -30
9 -18 12 -2 12 25 0z m6055 -4 c-7 -7 -303 -66 -330 -66 -34 0 -20 9 26 15 21
4 57 11 79 17 22 7 45 11 50 10 6 -1 29 4 53 11 43 13 131 22 122 13z m-5945
-54 c-3 -3 -11 0 -18 7 -9 10 -8 11 6 5 10 -3 15 -9 12 -12z m5435 -6 c0 -2
-9 -6 -20 -9 -11 -3 -18 -1 -14 4 5 9 34 13 34 5z m150 -5 c0 -5 -28 -12 -62
-16 -35 -3 -79 -8 -98 -10 -52 -6 -189 -13 -157 -8 15 2 25 7 23 11 -2 4 17 6
42 5 45 -1 45 -1 12 6 l-35 8 37 2 c20 0 40 -4 43 -9 4 -6 10 -8 14 -6 4 3 40
7 80 10 40 2 75 7 79 10 8 9 22 7 22 -3z m-5546 -10 c11 -4 15 -10 9 -14 -5
-3 -19 0 -29 8 -20 15 -11 18 20 6z m5076 -40 c0 -5 -9 -7 -20 -4 -11 3 -20 7
-20 9 0 2 9 4 20 4 11 0 20 -4 20 -9z m98 2 c-10 -2 -26 -2 -35 0 -10 3 -2 5
17 5 19 0 27 -2 18 -5z m-5158 -23 c0 -12 -5 -17 -13 -14 -8 3 -14 11 -14 19
0 8 6 15 14 15 7 0 13 -9 13 -20z m5014 12 c3 -5 0 -9 -7 -10 -7 -1 -25 -4
-42 -7 l-30 -5 30 15 c35 17 42 18 49 7z m-4897 -78 c-3 -3 -12 -4 -19 -1 -8
3 -5 6 6 6 11 1 17 -2 13 -5z m473 -54 c-27 -21 -33 -22 -70 -10 -22 7 -20 8
15 9 22 1 47 6 55 11 26 17 26 10 0 -10z m4130 -6 c0 -8 -91 -46 -97 -40 -3 3
3 8 13 12 10 3 33 12 49 19 36 17 35 16 35 9z m-63 -130 c-3 -3 -12 -4 -19 -1
-8 3 -5 6 6 6 11 1 17 -2 13 -5z m-52 -14 c-11 -5 -29 -8 -40 -8 -16 0 -15 2
5 8 34 11 60 11 35 0z m-226 -64 c-6 -7 -166 -46 -181 -45 -7 0 25 11 72 24
83 23 117 29 109 21z m-7175 -31 c-4 -8 -10 -15 -15 -15 -4 0 -6 7 -3 15 4 8
10 15 15 15 4 0 6 -7 3 -15z m6951 -4 c-6 -5 -32 -12 -60 -15 l-50 -5 55 13
c30 8 57 14 60 15 2 0 0 -3 -5 -8z m-19 -28 c-9 -10 -334 -75 -378 -76 -31 -1
-54 -6 -51 -11 4 -5 0 -6 -8 0 -20 12 -69 14 -69 3 0 -5 5 -9 12 -9 6 0 8 -3
5 -6 -4 -4 -13 -2 -20 5 -10 8 -22 8 -38 2 -23 -10 -23 -10 6 -11 25 -2 23 -4
-15 -11 -55 -11 -422 -55 -580 -69 -118 -11 -222 -4 -170 11 14 4 39 7 55 7
29 -1 29 -1 -5 -9 -25 -5 -16 -6 30 -3 95 7 140 15 140 24 0 12 25 16 290 50
135 17 340 48 455 68 116 21 240 37 277 37 36 0 65 -1 64 -2z m-1103 -150 c-7
-2 -19 -2 -25 0 -7 3 -2 5 12 5 14 0 19 -2 13 -5z m-65 -10 c-10 -2 -26 -2
-35 0 -10 3 -2 5 17 5 19 0 27 -2 18 -5z m-203 -42 c-6 -5 -30 -12 -55 -15
l-45 -6 40 14 c48 17 73 20 60 7z m63 2 c-10 -2 -26 -2 -35 0 -10 3 -2 5 17 5
19 0 27 -2 18 -5z m-6478 -83 c0 -5 -4 -10 -10 -10 -5 0 -10 5 -10 10 0 6 5
10 10 10 6 0 10 -4 10 -10z m115 0 c-3 -5 -11 -10 -16 -10 -6 0 -7 5 -4 10 3
6 11 10 16 10 6 0 7 -4 4 -10z m5515 -140 c-14 -4 -36 -8 -50 -8 -22 0 -22 1
5 8 17 4 39 8 50 8 16 0 15 -2 -5 -8z m103 3 c-13 -2 -33 -2 -45 0 -13 2 -3 4
22 4 25 0 35 -2 23 -4z m-256 -58 c0 -8 -4 -12 -9 -9 -5 3 -6 10 -3 15 9 13
12 11 12 -6z m-82 -45 c-3 -5 -12 -10 -18 -10 -7 0 -6 4 3 10 19 12 23 12 15
0z m-285 -140 c0 -5 -2 -10 -4 -10 -3 0 -8 5 -11 10 -3 6 -1 10 4 10 6 0 11
-4 11 -10z"/>
<path d="M2440 10386 c0 -2 8 -10 18 -17 15 -13 16 -12 3 4 -13 16 -21 21 -21
13z"/>
<path d="M8270 10851 c0 -5 5 -13 10 -16 6 -3 10 -2 10 4 0 5 -4 13 -10 16 -5
3 -10 2 -10 -4z"/>
<path d="M7350 9600 c-9 -6 -10 -10 -3 -10 6 0 15 5 18 10 8 12 4 12 -15 0z"/>
<path d="M6995 9350 c3 -5 8 -10 11 -10 2 0 4 5 4 10 0 6 -5 10 -11 10 -5 0
-7 -4 -4 -10z"/>
<path d="M6660 9100 c-8 -5 -12 -12 -9 -15 4 -3 12 1 19 10 14 17 11 19 -10 5z"/>
<path d="M5973 7905 c0 -8 4 -15 9 -15 4 0 8 7 8 15 0 8 -4 15 -8 15 -5 0 -9
-7 -9 -15z"/>
<path d="M7426 7120 c26 -96 101 -180 160 -180 l36 0 -82 79 c-45 44 -84 79
-87 78 -2 -1 -11 9 -19 23 l-15 25 7 -25z"/>
<path d="M4905 7370 c-3 -5 -1 -10 4 -10 6 0 11 5 11 10 0 6 -2 10 -4 10 -3 0
-8 -4 -11 -10z"/>
<path d="M4475 7000 c-3 -5 -1 -10 4 -10 6 0 11 5 11 10 0 6 -2 10 -4 10 -3 0
-8 -4 -11 -10z"/>
<path d="M4565 6850 c-3 -5 1 -10 9 -10 9 0 16 5 16 10 0 6 -4 10 -9 10 -6 0
-13 -4 -16 -10z"/>
<path d="M4143 6634 c7 -8 -12 -29 -33 -36 -10 -3 -8 -6 8 -10 12 -4 20 -3 17
2 -3 4 2 11 11 14 24 9 27 7 14 -9 -11 -13 -10 -14 4 -9 9 3 16 10 16 14 0 10
-28 40 -37 40 -4 0 -4 -3 0 -6z"/>
<path d="M4060 6570 c-10 -19 -10 -20 9 -8 22 13 28 28 11 28 -5 0 -14 -9 -20
-20z"/>
<path d="M6371 5726 c-7 -8 -8 -17 -3 -20 6 -3 12 3 15 14 6 24 4 25 -12 6z"/>
<path d="M6999 5419 c-11 -11 -18 -23 -15 -27 4 -3 19 6 34 21 14 15 21 27 14
27 -6 0 -21 -9 -33 -21z"/>
<path d="M6894 5295 c-10 -14 -28 -27 -39 -29 -35 -6 -55 -18 -55 -33 0 -8 4
-12 9 -8 10 6 37 -17 43 -37 4 -10 8 -10 21 0 11 10 14 23 10 43 -4 22 -2 29
10 29 8 0 17 -6 19 -12 3 -7 5 6 6 30 1 23 1 42 -1 42 -2 0 -12 -11 -23 -25z"/>
<path d="M6787 5196 c-3 -8 1 -20 9 -26 11 -10 14 -9 14 8 0 25 -16 37 -23 18z"/>
<path d="M6820 5146 c0 -3 9 -10 20 -16 11 -6 20 -8 20 -6 0 3 -9 10 -20 16
-11 6 -20 8 -20 6z"/>
<path d="M6970 608 c0 -4 4 -8 9 -8 6 0 12 4 15 8 3 5 -1 9 -9 9 -8 0 -15 -4
-15 -9z"/>
<path d="M8380 11080 c0 -5 5 -10 11 -10 5 0 7 5 4 10 -3 6 -8 10 -11 10 -2 0
-4 -4 -4 -10z"/>
<path d="M8876 7078 c-3 -35 -8 -137 -12 -228 l-6 -165 37 -23 37 -23 -7 208
c-4 114 -10 226 -14 247 -10 63 -28 55 -35 -16z"/>
<path d="M8421 6939 c-6 -18 -11 -35 -11 -38 1 -11 40 44 40 57 0 24 -18 12
-29 -19z"/>
<path d="M8599 6769 l-24 -20 28 17 c15 9 27 18 27 20 0 8 -8 4 -31 -17z"/>
<path d="M7770 6771 c8 -6 11 -11 5 -12 -5 0 -1 -5 10 -10 15 -7 10 -8 -17 -4
-21 3 -38 2 -38 -3 0 -9 81 -22 130 -21 l25 0 -23 10 c-14 5 -20 13 -16 20 4
7 3 9 -4 5 -5 -3 -12 -2 -14 4 -1 5 -19 12 -38 16 -26 4 -31 3 -20 -5z"/>
<path d="M7665 6755 c17 -8 37 -14 45 -14 8 0 2 7 -15 14 -16 8 -37 14 -45 14
-8 0 -1 -7 15 -14z"/>
<path d="M7834 6695 c-4 -11 -9 -23 -11 -27 -2 -5 7 -8 21 -8 30 0 32 8 12 36
-14 19 -15 19 -22 -1z"/>
<path d="M7706 6691 c-6 -10 16 -21 42 -21 13 0 12 3 -4 15 -22 17 -31 18 -38
6z"/>
<path d="M8802 6633 c-6 -2 -10 -8 -7 -13 3 -4 -3 -6 -13 -3 -12 3 -30 -9 -55
-36 -20 -23 -37 -46 -37 -51 0 -6 -7 -10 -15 -10 -21 0 -19 -36 6 -90 43 -95
121 -142 189 -113 14 6 41 16 60 21 31 10 29 10 -25 7 -36 -3 -50 -1 -35 3 17
5 21 10 12 16 -6 4 -12 19 -12 33 0 41 -22 103 -37 103 -7 0 -13 5 -13 11 0 6
-8 9 -17 7 -10 -2 -23 5 -30 17 -12 19 -12 18 -13 -9 0 -21 -3 -27 -10 -20
-12 12 7 67 20 59 4 -3 13 2 20 11 11 12 15 12 21 2 6 -9 9 -9 9 -1 0 6 14 14
31 18 22 5 36 2 51 -12 21 -18 21 -18 9 4 -19 37 -74 60 -109 46z m-42 -37 c0
-2 -8 -10 -17 -17 -16 -13 -17 -12 -4 4 13 16 21 21 21 13z m-40 -111 c0 -28
17 -72 38 -97 9 -10 10 -18 5 -18 -15 0 -29 20 -42 61 -18 55 -21 79 -10 79 5
0 9 -11 9 -25z"/>
<path d="M7586 6519 c-34 -27 -34 -68 0 -108 32 -38 56 -39 83 -5 35 45 26 95
-20 119 -35 19 -31 19 -63 -6z m28 -50 c-5 -9 -34 -13 -34 -5 0 2 3 12 6 20 5
13 9 14 20 5 8 -6 11 -15 8 -20z m46 -5 c0 -2 -7 -4 -15 -4 -8 0 -15 4 -15 10
0 5 7 7 15 4 8 -4 15 -8 15 -10z"/>
<path d="M8956 6475 c4 -8 8 -15 10 -15 2 0 4 7 4 15 0 8 -4 15 -10 15 -5 0
-7 -7 -4 -15z"/>
<path d="M8954 6415 c3 -18 -2 -34 -12 -43 -13 -11 -11 -11 8 1 16 9 26 24 27
43 2 24 1 26 -6 9 l-8 -20 -6 20 c-4 11 -5 7 -3 -10z"/>
<path d="M7900 6211 c0 -5 5 -13 10 -16 6 -3 10 -2 10 4 0 5 -4 13 -10 16 -5
3 -10 2 -10 -4z"/>
<path d="M8615 6042 c-10 -26 -31 -74 -47 -106 -32 -63 -32 -64 0 -180 17 -61
20 -65 25 -39 3 16 27 61 53 99 90 133 87 125 52 181 -17 26 -38 58 -48 70
l-17 22 -18 -47z"/>
<path d="M8681 5846 c-53 -94 -81 -166 -81 -213 0 -20 14 -133 30 -252 17
-119 33 -235 36 -259 l5 -44 29 45 c15 24 44 57 64 72 l36 27 0 90 c0 85 -10
175 -31 283 -5 28 -11 95 -14 150 -6 117 -14 175 -24 175 -4 0 -27 -33 -50
-74z"/>
<path d="M8481 5763 c-30 -112 -28 -138 9 -157 29 -14 30 -14 36 11 8 32 -4
205 -15 216 -5 5 -18 -27 -30 -70z"/>
<path d="M7549 5662 c0 -4 0 -28 1 -54 1 -40 -1 -48 -17 -48 -13 0 -8 -6 15
-20 18 -11 35 -20 37 -20 3 0 5 21 5 46 0 25 4 53 9 63 8 14 4 19 -20 28 -16
6 -29 8 -30 5z"/>
<path d="M10239 5333 c-13 -16 -12 -17 4 -4 9 7 17 15 17 17 0 8 -8 3 -21 -13z"/>
<path d="M10329 5313 c-13 -16 -12 -17 4 -4 9 7 17 15 17 17 0 8 -8 3 -21 -13z"/>
<path d="M11175 5320 c-3 -5 -3 -14 0 -20 3 -5 -5 -25 -18 -42 -24 -33 -70
-138 -64 -145 9 -8 107 151 107 174 0 16 -4 22 -12 17 -8 -5 -9 -2 -5 9 7 19
2 23 -8 7z"/>
<path d="M10195 5280 c-4 -6 -10 -8 -15 -5 -5 3 -16 -11 -25 -31 -19 -47 -19
-51 3 -31 10 10 22 14 27 10 4 -5 5 -2 1 5 -4 7 0 24 8 37 9 14 14 25 12 25
-3 0 -8 -5 -11 -10z"/>
<path d="M10980 5219 c0 -5 5 -7 10 -4 6 3 10 8 10 11 0 2 -4 4 -10 4 -5 0
-10 -5 -10 -11z"/>
<path d="M10110 5180 c0 -5 5 -10 10 -10 6 0 10 5 10 10 0 6 -4 10 -10 10 -5
0 -10 -4 -10 -10z"/>
<path d="M10952 5160 c0 -14 2 -19 5 -12 2 6 2 18 0 25 -3 6 -5 1 -5 -13z"/>
<path d="M11183 5168 c-7 -8 -10 -18 -6 -21 3 -4 -2 -17 -13 -30 -65 -74 -102
-154 -61 -131 7 4 8 3 4 -2 -5 -5 -13 -9 -17 -9 -5 0 -16 -9 -25 -20 -14 -19
-14 -18 -4 10 6 19 7 26 0 20 -17 -17 -22 -72 -7 -78 8 -3 13 1 12 11 0 9 9
21 21 27 28 14 102 103 109 131 3 11 4 40 2 64 -2 36 -5 41 -15 28z"/>
<path d="M10081 5104 c0 -11 3 -14 6 -6 3 7 2 16 -1 19 -3 4 -6 -2 -5 -13z"/>
<path d="M10361 4987 l-25 -32 32 29 c33 31 37 36 25 35 -5 0 -19 -14 -32 -32z"/>
<path d="M11175 5000 c-10 -11 -22 -17 -28 -13 -6 3 -7 1 -3 -6 4 -6 -9 -38
-29 -71 -36 -60 -41 -74 -52 -142 -8 -53 9 -48 41 12 18 33 31 47 41 43 10 -3
15 1 15 12 0 9 -4 13 -10 10 -17 -11 -11 5 11 28 l21 22 -11 -22 c-12 -24 0
-32 17 -10 9 11 17 157 9 157 -2 0 -12 -9 -22 -20z"/>
<path d="M10676 4925 c4 -27 7 -57 7 -65 0 -8 7 -24 15 -35 10 -13 13 -15 9
-4 -5 14 -11 49 -21 121 -1 10 -6 21 -10 25 -4 4 -4 -14 0 -42z"/>
<path d="M10706 4935 c8 -50 14 -58 14 -19 0 16 -5 36 -11 44 -7 11 -8 4 -3
-25z"/>
<path d="M9910 4951 c0 -6 4 -13 10 -16 6 -3 7 1 4 9 -7 18 -14 21 -14 7z"/>
<path d="M9947 4909 c4 -13 8 -18 11 -10 2 7 -1 18 -6 23 -8 8 -9 4 -5 -13z"/>
<path d="M9706 4861 c-3 -5 1 -26 9 -47 12 -29 14 -31 9 -9 -4 17 -7 38 -8 48
0 19 -2 21 -10 8z"/>
<path d="M10716 4857 c3 -10 9 -15 12 -12 3 3 0 11 -7 18 -10 9 -11 8 -5 -6z"/>
<path d="M11166 4814 c-5 -14 -4 -15 9 -4 17 14 19 20 6 20 -5 0 -12 -7 -15
-16z"/>
<path d="M10631 4804 c0 -11 3 -14 6 -6 3 7 2 16 -1 19 -3 4 -6 -2 -5 -13z"/>
<path d="M11181 4783 c-7 -18 -17 -33 -21 -33 -4 0 -11 -12 -15 -27 -3 -16
-13 -35 -20 -43 -21 -24 -36 -68 -24 -75 5 -4 6 -11 3 -17 -4 -7 -2 -8 5 -4 6
4 8 13 5 19 -5 9 -3 8 6 0 11 -10 11 -16 -4 -31 -9 -11 -19 -29 -21 -42 -4
-18 -2 -20 11 -9 8 6 12 14 9 17 -2 3 4 19 15 37 11 18 16 35 12 39 -4 4 -1 6
6 4 8 -1 23 8 33 23 17 21 19 38 17 100 -3 73 -3 73 -17 42z"/>
<path d="M9720 4758 c0 -7 5 -20 10 -28 8 -12 10 -11 10 7 0 12 -4 25 -10 28
-5 3 -10 0 -10 -7z"/>
<path d="M10085 4739 c-4 -6 -5 -12 -2 -15 2 -3 7 2 10 11 7 17 1 20 -8 4z"/>
<path d="M10046 4674 c-23 -50 -16 -52 12 -3 12 21 19 39 14 39 -4 0 -16 -16
-26 -36z"/>
<path d="M10345 4580 c-4 -6 -11 -7 -17 -4 -7 4 -8 2 -4 -5 6 -9 11 -9 22 0
14 11 18 19 10 19 -3 0 -8 -5 -11 -10z"/>
<path d="M10503 4568 c-6 -7 -13 -20 -17 -28 -6 -12 -4 -11 6 1 7 9 17 16 23
17 13 1 20 22 7 22 -5 0 -14 -6 -19 -12z"/>
<path d="M10610 4488 c0 -9 7 -19 16 -22 15 -6 15 -4 3 11 -7 10 -15 20 -16
22 -2 2 -3 -3 -3 -11z"/>
<path d="M10640 4495 c0 -6 5 -16 10 -21 13 -13 2 -46 -13 -37 -6 4 -7 1 -2
-6 5 -9 12 -7 27 8 11 12 16 27 12 34 -5 8 -2 7 9 -2 11 -9 17 -10 17 -2 0 11
-5 13 -32 15 -7 1 -16 6 -20 11 -5 7 -8 6 -8 0z"/>
<path d="M10691 4434 c0 -11 3 -14 6 -6 3 7 2 16 -1 19 -3 4 -6 -2 -5 -13z"/>
<path d="M10621 4410 c0 -8 4 -24 9 -35 5 -13 9 -14 9 -5 0 8 -4 24 -9 35 -5
13 -9 14 -9 5z"/>
<path d="M9643 4058 c-18 -24 -24 -38 -16 -38 4 0 13 11 20 25 12 27 11 32 -4
13z"/>
<path d="M9710 4060 c0 -5 5 -10 11 -10 5 0 7 5 4 10 -3 6 -8 10 -11 10 -2 0
-4 -4 -4 -10z"/>
<path d="M8164 4051 c-47 -12 -54 -19 -54 -56 l0 -33 61 19 c84 26 158 25 195
-3 l29 -22 -19 22 c-19 22 -19 22 5 23 22 0 23 1 4 9 -11 5 -15 9 -10 10 6 0
-6 9 -25 20 -37 20 -125 25 -186 11z"/>
<path d="M8400 3953 c0 -5 9 -18 20 -28 11 -10 20 -16 20 -13 0 3 -9 15 -20
28 -11 13 -20 19 -20 13z"/>
<path d="M9137 3736 c-4 -10 -1 -13 8 -9 8 3 12 9 9 14 -7 12 -11 11 -17 -5z"/>
<path d="M5340 2940 c-8 -5 -10 -10 -5 -10 6 0 17 5 25 10 8 5 11 10 5 10 -5
0 -17 -5 -25 -10z"/>
<path d="M5617 2930 c-14 -11 -30 -20 -35 -20 -5 0 -15 -7 -22 -15 -9 -10 4
-7 39 9 29 13 52 27 52 31 1 16 -9 14 -34 -5z"/>
<path d="M5670 2920 c-40 -22 -32 -25 23 -9 21 5 35 14 32 20 -8 12 -14 11
-55 -11z"/>
<path d="M5274 2888 l-19 -23 23 19 c12 11 22 21 22 23 0 8 -8 2 -26 -19z"/>
<path d="M5520 2875 c-11 -13 -10 -14 4 -9 9 3 16 10 16 15 0 13 -6 11 -20 -6z"/>
<path d="M5595 2880 c-3 -6 1 -7 9 -4 18 7 21 14 7 14 -6 0 -13 -4 -16 -10z"/>
<path d="M5624 2845 c-10 -8 -14 -14 -9 -15 15 0 40 18 34 24 -3 3 -14 -1 -25
-9z"/>
<path d="M4094 2818 l-19 -23 23 19 c21 18 27 26 19 26 -2 0 -12 -10 -23 -22z"/>
<path d="M4049 2783 c-13 -16 -12 -17 4 -4 9 7 17 15 17 17 0 8 -8 3 -21 -13z"/>
<path d="M5638 2693 c7 -3 16 -2 19 1 4 3 -2 6 -13 5 -11 0 -14 -3 -6 -6z"/>
<path d="M3896 2625 c-3 -8 -1 -15 3 -15 5 0 11 7 15 15 3 8 1 15 -3 15 -5 0
-11 -7 -15 -15z"/>
<path d="M4730 2501 c0 -6 5 -13 10 -16 6 -3 10 1 10 9 0 9 -4 16 -10 16 -5 0
-10 -4 -10 -9z"/>
<path d="M4086 2452 c-4 -7 -5 -16 -1 -22 7 -11 35 -2 35 12 0 5 -4 7 -9 4 -5
-4 -11 -1 -13 6 -3 9 -6 9 -12 0z"/>
<path d="M4056 2404 c-23 -23 -20 -30 4 -9 11 10 20 20 20 22 0 7 -9 2 -24
-13z"/>
<path d="M4115 2344 c-22 -20 -27 -26 -11 -15 32 24 51 27 40 9 -5 -10 -4 -10
5 -2 7 7 11 19 9 28 -2 12 -12 7 -43 -20z"/>
<path d="M4240 2330 c0 -5 4 -10 9 -10 6 0 13 5 16 10 3 6 -1 10 -9 10 -9 0
-16 -4 -16 -10z"/>
<path d="M4436 2297 c3 -10 9 -15 12 -12 3 3 0 11 -7 18 -10 9 -11 8 -5 -6z"/>
<path d="M1760 2210 c0 -4 7 -7 15 -6 23 3 26 12 5 13 -11 1 -20 -2 -20 -7z"/>
<path d="M3257 2203 c-4 -3 -7 -11 -7 -17 0 -6 5 -5 12 2 6 6 9 14 7 17 -3 3
-9 2 -12 -2z"/>
<path d="M3270 2166 c0 -8 4 -17 9 -20 5 -4 7 3 4 14 -6 23 -13 26 -13 6z"/>
<path d="M1632 2120 c0 -19 2 -27 5 -17 2 9 2 25 0 35 -3 9 -5 1 -5 -18z"/>
<path d="M3186 1908 c3 -5 10 -6 15 -3 13 9 11 12 -6 12 -8 0 -12 -4 -9 -9z"/>
<path d="M1561 1804 c0 -11 3 -14 6 -6 3 7 2 16 -1 19 -3 4 -6 -2 -5 -13z"/>
<path d="M1665 1749 c-4 -6 -5 -12 -2 -15 2 -3 7 2 10 11 7 17 1 20 -8 4z"/>
<path d="M2374 1559 c-19 -22 -19 -22 4 -10 12 6 22 16 22 21 0 15 -5 12 -26
-11z"/>
<path d="M1931 1539 c-13 -17 -21 -32 -19 -35 3 -2 15 10 27 27 13 17 21 32
19 35 -3 2 -15 -10 -27 -27z"/>
<path d="M1491 1504 c0 -11 3 -14 6 -6 3 7 2 16 -1 19 -3 4 -6 -2 -5 -13z"/>
<path d="M2225 1490 c3 -5 10 -10 16 -10 5 0 9 5 9 10 0 6 -7 10 -16 10 -8 0
-12 -4 -9 -10z"/>
<path d="M2101 1464 c0 -11 3 -14 6 -6 3 7 2 16 -1 19 -3 4 -6 -2 -5 -13z"/>
<path d="M2230 1460 c0 -6 4 -9 9 -6 5 4 12 1 14 -4 3 -6 4 -5 3 2 -3 15 -26
23 -26 8z"/>
<path d="M1650 1369 c0 -5 5 -7 10 -4 6 3 10 8 10 11 0 2 -4 4 -10 4 -5 0 -10
-5 -10 -11z"/>
<path d="M1664 1329 c-4 -7 -3 -9 4 -5 5 3 12 0 15 -6 2 -7 7 -10 11 -7 4 3 0
12 -8 18 -11 9 -16 9 -22 0z"/>
<path d="M1100 1050 c-12 -7 -10 -9 7 -7 12 0 19 5 17 9 -6 10 -6 10 -24 -2z"/>
<path d="M603 563 c4 -3 1 -13 -6 -22 -11 -14 -10 -14 6 -2 20 15 22 31 5 31
-6 0 -8 -3 -5 -7z"/>
<path d="M514 528 c-4 -5 -4 -11 -1 -14 6 -6 37 6 37 15 0 11 -30 9 -36 -1z"/>
<path d="M520 497 c-17 -13 -23 -67 -8 -67 6 0 8 6 5 14 -3 8 1 17 9 20 9 3
12 11 8 18 -5 8 -2 9 11 4 15 -5 16 -4 5 9 -7 8 -13 15 -14 15 0 0 -8 -6 -16
-13z"/>
<path d="M245 440 c-8 -13 5 -13 25 0 13 8 13 10 -2 10 -9 0 -20 -4 -23 -10z"/>
<path d="M166 415 c-9 -26 -7 -32 5 -12 6 10 9 21 6 23 -2 3 -7 -2 -11 -11z"/>
<path d="M191 370 c0 -8 4 -22 9 -30 12 -18 12 -2 0 25 -6 13 -9 15 -9 5z"/>
</g>
</svg>
